<svg xmlns="http://www.w3.org/2000/svg" width="26" height="26" fill="none" xmlns:v="https://vecta.io/nano"><path d="M25 13c0 6.627-5.373 12-12 12S1 19.627 1 13 6.373 1 13 1s12 5.373 12 12z" fill="#173c5a"/><g fill="#fff"><path d="M13.062 16.343l1.671 1.671L19.748 13l-5.014-5.014-1.671 1.672 2.159 2.16H6.314v2.364h8.907l-2.16 2.162z"/><path fill-rule="evenodd" d="M22.192 22.192a13 13 0 0 0 0-18.384 13 13 0 0 0-18.384 0 13 13 0 0 0 0 18.384 13 13 0 0 0 18.384 0zm-1.671-1.671c1.995-1.995 3.115-4.7 3.115-7.521s-1.121-5.526-3.115-7.521-4.7-3.115-7.521-3.115-5.526 1.121-7.521 3.115-3.115 4.7-3.115 7.521 1.121 5.526 3.115 7.521 4.7 3.115 7.521 3.115 5.526-1.121 7.521-3.115z"/></g></svg>