<svg xmlns="http://www.w3.org/2000/svg" width="238" height="79" fill="none" xmlns:v="https://vecta.io/nano"><path d="M7.471 9.995V7.574h5.723v7.122c-.299.363-.744.696-1.341.997a8.33 8.33 0 0 1-1.99.688 11.05 11.05 0 0 1-2.343.236c-1.586 0-2.927-.332-4.026-.997S1.56 13.997.986 12.746s-.86-2.738-.86-4.462.306-3.213.919-4.464S2.533 1.62 3.671.971 6.168 0 7.754 0c.862 0 1.684.13 2.461.392s1.393.581 1.848.96.682.76.682 1.139c0 .254-.106.542-.319.867s-.489.636-.834.937c-.628-.584-1.243-1.002-1.848-1.246A5.14 5.14 0 0 0 7.8 2.681c-1.429 0-2.515.478-3.262 1.438s-1.12 2.331-1.12 4.119.381 3.301 1.143 4.298 1.864 1.495 3.308 1.495c.69 0 1.272-.104 1.743-.309a2.54 2.54 0 0 0 .541-.332V9.995H7.468h.003zm11.774-3.893c.299-.426.68-.776 1.143-1.043a2.83 2.83 0 0 1 1.447-.402c.551 0 .986.099 1.308.296s.484.478.484.844a2.99 2.99 0 0 1-.105.701 6.51 6.51 0 0 1-.283.854 5.91 5.91 0 0 1-.389.797c-.299-.254-.579-.431-.847-.535a2.46 2.46 0 0 0-.896-.153c-.471 0-.875.143-1.212.426s-.507.626-.507 1.02v7.314h-3.202V4.986l.283-.047a6.29 6.29 0 0 1 .777-.047c.533 0 .978.104 1.331.309a1.36 1.36 0 0 1 .669.901zm16.084 10.115h-2.142c-.33 0-.561-.083-.695-.249s-.201-.501-.201-1.01c-.723.981-1.877 1.472-3.462 1.472-1.006 0-1.799-.197-2.379-.594s-.958-1.005-1.13-1.827c-.126-.553-.188-1.368-.188-2.445V4.986c.049-.016.188-.036.425-.06l.659-.036c1.413 0 2.119.626 2.119 1.877v4.654c0 .745.052 1.267.152 1.568s.276.519.52.654.577.202 1.001.202c.597 0 1.099-.122 1.506-.369s.613-.55.613-.914V4.989c.046-.016.188-.036.422-.06l.659-.036c.69 0 1.218.169 1.578.511s.541.836.541 1.485v9.331l.003-.003zm6.076-10.185c.345-.413.801-.745 1.367-.997s1.176-.379 1.838-.379c1.398 0 2.479.491 3.249 1.472s1.153 2.39 1.153 4.225c0 2.009-.412 3.551-1.236 4.617s-1.967 1.601-3.426 1.601c-.44 0-.847-.055-1.225-.166s-.716-.262-1.012-.452-.494-.363-.59-.522v5.959h-3.179V4.986l.283-.047a6.29 6.29 0 0 1 .777-.047c1.161 0 1.828.379 2.003 1.139h-.003zm4.263 4.392c0-2.232-.785-3.348-2.355-3.348-.551 0-.981.106-1.295.322a1.02 1.02 0 0 0-.471.89v5.033a2.38 2.38 0 0 0 .801.511 2.59 2.59 0 0 0 .989.202c1.555 0 2.33-1.202 2.33-3.608l.003-.003zm16.506.119c0 1.251-.224 2.333-.672 3.252s-1.084 1.612-1.907 2.076-1.818.701-2.978.701c-1.758 0-3.12-.529-4.085-1.591s-1.449-2.518-1.449-4.368c0-1.202.239-2.258.718-3.169s1.138-1.601 1.98-2.076 1.818-.711 2.932-.711c1.758 0 3.107.519 4.049 1.555s1.413 2.481 1.413 4.332zm-3.226.023c0-2.294-.762-3.442-2.283-3.442-.77 0-1.359.309-1.766.927s-.613 1.464-.613 2.541c0 1.139.201 2.019.6 2.634a1.94 1.94 0 0 0 1.73.927c1.555 0 2.332-1.197 2.332-3.584v-.003z" fill="#a5a4a4"/><g fill="#13385a"><path d="M.958 67.469V30.593H12.57l-.412 33.972c-.062 4.651 7.543 4.456 7.522 1.113V30.593h11.615v33.731s-.337 6.792 7.705 4.194c.067 2.237-.371 7.322-5.627 7.864-6.757.698-7.887-1.396-7.887-1.396s-4.42 3.605-14.297 1.539c-7.507-1.565-9.512-5.98-10.042-8.01-.167-.641-.188-1.049-.188-1.049v.003z"/><path d="M39 68.518c-.016-.641-.077-36.386-.077-36.386 0-.851.682-1.539 1.527-1.539h10.088v35.991c0 1.069-.86 1.934-1.918 1.934H39z"/></g><path d="M74.515 30.287c0 1.521-.51 2.785-1.532 3.789s-2.288 1.508-3.794 1.508-2.834-.503-3.833-1.508-1.496-2.268-1.496-3.789.497-2.798 1.496-3.828 2.276-1.547 3.833-1.547 2.772.517 3.794 1.547 1.532 2.307 1.532 3.828z" fill="#5f9dd5"/><path d="M74.442 77.309c-.34.195-1.509.293-3.504.293-2.288 0-3.931-.491-4.927-1.472s-1.496-2.525-1.496-4.635V42.06c.147-.047.584-.112 1.313-.184l2.044-.109c4.379 0 6.567 1.939 6.567 5.811v29.731h.003zm12.918-5.742c-.535-1.62-.803-3.727-.803-6.33V31.096l1.094-.148 2.263-.148c4.379 0 6.569 1.962 6.569 5.887v5.149H106.7v7.506H96.483v15.747c0 3.434 1.385 5.152 4.16 5.152.973 0 1.969-.244 2.991-.737a9.32 9.32 0 0 0 2.629-1.84c.875 1.277 1.47 2.281 1.789 3.016.314.737.474 1.399.474 1.988 0 .932-.51 1.814-1.535 2.647s-2.324 1.485-3.905 1.952-3.297.698-5.146.698c-5.499 0-9.025-2.133-10.583-6.4l.003.003zm27.151 5.3v-6.696l15.836-20.53h-16.055c-.049-.343-.072-.836-.072-1.472 0-4.218 2.286-6.33 6.86-6.33h16.859c1.606 0 2.759.27 3.467.81s1.058 1.446 1.058 2.723v2.502l-16.277 21.267h11.386c2.237 0 3.857.415 4.855 1.251s1.496 2.232 1.496 4.194c0 .638-.049 1.399-.147 2.281h-29.266zm48.169.442c-.438.195-1.653.293-3.648.293-4.185 0-6.276-2.035-6.276-6.107V24.989c.147-.047.585-.112 1.313-.184l2.044-.112c4.379 0 6.567 1.939 6.567 5.814v46.801zm29.632-6.699c1.607 0 2.981-.218 4.124-.662s2.103-.968 2.883-1.583l2.044-1.729a18.41 18.41 0 0 1 1.934 3.052c.558 1.103.839 1.975.839 2.614 0 1.08-.61 2.061-1.825 2.943-1.169.885-2.727 1.583-4.673 2.1s-4.039.771-6.276.771c-5.936 0-10.498-1.643-13.684-4.931s-4.781-8.069-4.781-14.348c0-3.727.718-6.917 2.155-9.567s3.431-4.685 5.985-6.107 5.411-2.133 8.575-2.133c4.767 0 8.454 1.389 11.056 4.158s3.905 6.585 3.905 11.443c0 2.354-.072 3.875-.218 4.563h-21.457c.193 3.042 1.094 5.37 2.701 6.99s3.843 2.427 6.713 2.427zm3.285-14.937c0-5.297-2.07-7.947-6.204-7.947-2.044 0-3.648.714-4.816 2.133-1.169 1.425-1.751 3.361-1.751 5.814H195.6h-.003zm28.826-10.154c.925-1.324 2.104-2.403 3.54-3.237s2.929-1.251 4.489-1.251c1.702 0 3.054.309 4.052.919.997.615 1.496 1.485 1.496 2.614 0 .589-.108 1.313-.327 2.17a21.07 21.07 0 0 1-.875 2.65c-.365.906-.765 1.729-1.202 2.466-.927-.784-1.802-1.337-2.629-1.656s-1.75-.478-2.772-.478c-1.46 0-2.713.441-3.759 1.324s-1.57 1.941-1.57 3.166V76.87h-9.926V42.065l.875-.148a19.14 19.14 0 0 1 2.41-.145c1.652 0 3.029.319 4.124.955s1.789 1.57 2.08 2.795l-.006-.003z" fill="#13385a"/></svg>