<svg xmlns="http://www.w3.org/2000/svg" width="140" height="26" fill="#fff" xmlns:v="https://vecta.io/nano"><path opacity=".9" d="M7.111 16.452H3.046v-3.043h4.065c.554 0 1.003-.094 1.348-.281s.595-.445.752-.775c.165-.337.247-.715.247-1.134 0-.449-.082-.865-.247-1.247a2.01 2.01 0 0 0-.752-.921c-.344-.24-.794-.359-1.348-.359H4.528V22H.586V5.648h6.525c1.31 0 2.437.24 3.38.719.951.479 1.681 1.138 2.19 1.977.509.831.764 1.782.764 2.853 0 1.056-.255 1.977-.764 2.763s-1.239 1.4-2.19 1.842c-.943.434-2.07.651-3.38.651zm8.457-10.804h6.435c1.258 0 2.351.187 3.279.562s1.643.928 2.145 1.662c.509.734.764 1.64.764 2.718 0 .936-.146 1.718-.438 2.347a4.2 4.2 0 0 1-1.224 1.561c-.517.404-1.119.738-1.808 1l-1.291.73h-5.402l-.022-3.043h3.998c.502 0 .917-.09 1.247-.27a1.74 1.74 0 0 0 .741-.764c.172-.337.258-.738.258-1.202 0-.472-.086-.876-.258-1.213s-.427-.595-.764-.775c-.329-.18-.738-.27-1.224-.27H19.51V22h-3.942V5.648zM24.519 22l-3.616-7.232 4.178-.022 3.661 7.086V22h-4.223zm19.889-8.501v.663c0 1.25-.176 2.373-.528 3.369-.344.988-.835 1.834-1.471 2.538a6.52 6.52 0 0 1-2.257 1.606c-.869.367-1.827.55-2.875.55-1.056 0-2.022-.183-2.898-.55-.869-.374-1.625-.91-2.269-1.606-.636-.704-1.131-1.55-1.482-2.538-.344-.996-.517-2.119-.517-3.369v-.663c0-1.25.172-2.373.517-3.369.352-.996.842-1.842 1.471-2.538a6.33 6.33 0 0 1 2.257-1.606c.876-.374 1.842-.562 2.898-.562 1.048 0 2.006.187 2.875.562.876.367 1.632.902 2.269 1.606.636.696 1.13 1.542 1.482 2.538s.528 2.119.528 3.369zm-3.998.663v-.685c0-.809-.071-1.52-.213-2.134-.135-.621-.337-1.142-.607-1.561s-.603-.734-.999-.943c-.389-.217-.835-.326-1.336-.326-.524 0-.981.109-1.37.326-.389.21-.715.524-.977.943s-.46.94-.595 1.561c-.127.614-.191 1.325-.191 2.134v.685c0 .801.064 1.512.191 2.134.135.614.333 1.134.595 1.561.27.427.599.749.988.966.397.217.857.326 1.381.326.502 0 .947-.109 1.336-.326s.715-.539.977-.966c.27-.427.472-.947.607-1.561.142-.621.213-1.333.213-2.134zm-4.908-9.366l2.224-3.526h3.998L38.59 4.795h-3.088zm14.128.854l2.673 5.436 2.673-5.436h4.492l-4.56 8.108L59.591 22h-4.537l-2.751-5.537L49.551 22h-4.548l4.694-8.243-4.571-8.108h4.503zm15.453 0V22h-3.931V5.648h3.931zm4.728 0h3.212l3.65 11.376 3.65-11.376h3.212L77.976 22H75.37L69.811 5.648zm-1.954 0h3.324l.618 12.533V22h-3.942V5.648zm14.308 0H85.5V22h-3.953v-3.818l.618-12.533zm19.698 7.85v.663c0 1.25-.176 2.373-.528 3.369-.344.988-.835 1.834-1.471 2.538a6.52 6.52 0 0 1-2.257 1.606c-.868.367-1.827.55-2.875.55-1.056 0-2.021-.183-2.897-.55-.868-.374-1.625-.91-2.269-1.606-.636-.704-1.13-1.55-1.482-2.538-.344-.996-.517-2.119-.517-3.369v-.663c0-1.25.172-2.373.517-3.369.352-.996.842-1.842 1.471-2.538a6.33 6.33 0 0 1 2.257-1.606c.876-.374 1.842-.562 2.898-.562 1.048 0 2.007.187 2.875.562.876.367 1.632.902 2.269 1.606.636.696 1.13 1.542 1.482 2.538s.528 2.119.528 3.369zm-3.998.663v-.685c0-.809-.071-1.52-.213-2.134-.135-.621-.337-1.142-.606-1.561s-.603-.734-.999-.943c-.389-.217-.835-.326-1.336-.326-.524 0-.981.109-1.37.326-.389.21-.715.524-.977.943s-.46.94-.595 1.561c-.127.614-.191 1.325-.191 2.134v.685c0 .801.064 1.512.191 2.134.135.614.333 1.134.595 1.561.269.427.599.749.988.966.397.217.857.326 1.381.326.502 0 .947-.109 1.337-.326s.715-.539.977-.966c.27-.427.472-.947.606-1.561.142-.621.213-1.333.213-2.134z"/><path d="M127.061 16.343l1.672 1.671L133.748 13l-5.014-5.014-1.671 1.672 2.159 2.16h-8.908v2.364h8.908l-2.161 2.162z"/><path fill-rule="evenodd" d="M136.192 22.192a13 13 0 0 0 0-18.384 13 13 0 0 0-18.384 0 13 13 0 0 0 18.384 18.384zm-1.671-1.671c1.995-1.995 3.115-4.7 3.115-7.521s-1.12-5.526-3.115-7.521-4.7-3.115-7.521-3.115-5.526 1.121-7.521 3.115-3.115 4.7-3.115 7.521 1.12 5.526 3.115 7.521 4.7 3.115 7.521 3.115 5.526-1.121 7.521-3.115z"/></svg>