<svg xmlns="http://www.w3.org/2000/svg" width="183" height="60" fill="none" xmlns:v="https://vecta.io/nano"><g fill="#fff"><path d="M5.635 7.676v-1.86h4.391v5.47c-.229.279-.571.534-1.029.766a6.3 6.3 0 0 1-1.527.528 8.47 8.47 0 0 1-1.797.181c-1.217 0-2.246-.255-3.089-.766S1.1 10.75.66 9.789 0 7.686 0 6.362.235 3.894.705 2.933 1.847 1.242 2.72.744s1.916-.746 3.133-.746a5.87 5.87 0 0 1 1.888.301c.596.201 1.069.447 1.418.738s.523.584.523.875c0 .195-.081.417-.245.666s-.375.488-.64.72c-.482-.449-.954-.77-1.418-.957a3.94 3.94 0 0 0-1.491-.283c-1.096 0-1.93.367-2.502 1.104s-.859 1.79-.859 3.164.292 2.536.877 3.301 1.43 1.148 2.538 1.148c.529 0 .976-.08 1.337-.237a1.95 1.95 0 0 0 .415-.255V7.676h-2.06.002zm9.034-2.991a2.72 2.72 0 0 1 .877-.801 2.17 2.17 0 0 1 1.11-.309c.423 0 .756.076 1.003.227s.371.367.371.648a2.3 2.3 0 0 1-.081.538c-.053.213-.126.433-.217.656a4.5 4.5 0 0 1-.298.612c-.229-.195-.444-.331-.65-.411s-.435-.118-.687-.118a1.4 1.4 0 0 0-.93.327c-.259.219-.389.48-.389.783v5.618h-2.457V3.828l.217-.036a4.82 4.82 0 0 1 .596-.036c.409 0 .751.08 1.021.237a1.05 1.05 0 0 1 .514.692zm12.341 7.77h-1.643c-.253 0-.431-.064-.533-.191s-.154-.385-.154-.775c-.555.754-1.44 1.13-2.656 1.13-.772 0-1.381-.152-1.825-.457s-.735-.771-.867-1.404c-.097-.425-.144-1.051-.144-1.878V3.828a2.28 2.28 0 0 1 .326-.046l.506-.028c1.084 0 1.626.48 1.626 1.441V8.77c0 .572.04.973.116 1.204a.85.85 0 0 0 .399.502c.188.103.442.155.768.155.458 0 .843-.094 1.155-.283s.47-.423.47-.702V3.83a2.23 2.23 0 0 1 .324-.046l.506-.028c.529 0 .934.13 1.211.393s.415.642.415 1.14v7.167l.002-.002zm4.661-7.823c.265-.317.614-.572 1.049-.766s.903-.291 1.41-.291c1.072 0 1.902.377 2.493 1.13s.885 1.836.885 3.246c0 1.543-.316 2.727-.948 3.547s-1.509 1.23-2.629 1.23a3.3 3.3 0 0 1-.94-.128c-.288-.086-.549-.201-.776-.347s-.379-.279-.452-.401v4.577h-2.439V3.828l.217-.036a4.82 4.82 0 0 1 .596-.036c.891 0 1.402.291 1.537.875h-.002zm3.271 3.373c0-1.715-.602-2.572-1.807-2.572-.423 0-.752.082-.993.247a.78.78 0 0 0-.361.684v3.866a1.83 1.83 0 0 0 .614.393 1.98 1.98 0 0 0 .758.155c1.193 0 1.788-.923 1.788-2.771l.002-.002zm12.664.091c0 .961-.172 1.792-.515 2.498s-.832 1.238-1.464 1.595-1.395.538-2.285.538c-1.349 0-2.394-.407-3.135-1.222s-1.112-1.934-1.112-3.355c0-.923.184-1.734.551-2.434s.873-1.23 1.519-1.595 1.394-.546 2.25-.546c1.349 0 2.384.399 3.107 1.194s1.084 1.906 1.084 3.327zm-2.475.018c0-1.762-.585-2.644-1.752-2.644a1.52 1.52 0 0 0-1.355.712c-.312.475-.47 1.124-.47 1.952 0 .875.154 1.551.46 2.023s.749.712 1.327.712c1.193 0 1.789-.919 1.789-2.753v-.002zM.638 51.822V23.497h8.91l-.316 26.094c-.047 3.572 5.787 3.423 5.771.855V23.497h8.912v25.909s-.259 5.217 5.912 3.222c.051 1.718-.284 5.624-4.318 6.041-5.185.536-6.052-1.073-6.052-1.073s-3.391 2.769-10.97 1.182c-5.759-1.202-7.298-4.593-7.705-6.152-.128-.492-.144-.806-.144-.806v.002z"/><path d="M29.826 52.628c-.012-.492-.059-27.948-.059-27.948 0-.654.523-1.182 1.171-1.182h7.741v27.645a1.48 1.48 0 0 1-1.471 1.485h-7.381z"/></g><path d="M57.075 23.262c0 1.168-.391 2.139-1.175 2.911s-1.756 1.158-2.911 1.158-2.175-.387-2.941-1.158S48.9 24.43 48.9 23.262s.381-2.149 1.148-2.941 1.746-1.188 2.941-1.188 2.127.397 2.911 1.188 1.175 1.772 1.175 2.941z" fill="#5f9dd5"/><path d="M57.02 59.38c-.261.15-1.157.225-2.688.225-1.756 0-3.016-.377-3.78-1.13s-1.148-1.94-1.148-3.56v-22.61c.113-.036.448-.086 1.007-.142l1.568-.084c3.36 0 5.039 1.489 5.039 4.464V59.38h.002zm9.911-4.41c-.411-1.244-.616-2.863-.616-4.862V23.884l.839-.114 1.736-.114c3.36 0 5.041 1.507 5.041 4.522v3.955h7.839v5.766h-7.839v12.095c0 2.638 1.063 3.957 3.192 3.957.747 0 1.511-.187 2.295-.566s1.456-.847 2.017-1.413c.672.981 1.128 1.752 1.373 2.317s.364 1.075.364 1.527c0 .716-.391 1.394-1.177 2.033s-1.784 1.14-2.996 1.499-2.53.536-3.948.536c-4.219 0-6.925-1.639-8.12-4.916l.002.002zm20.831 4.071v-5.144l12.151-15.769H87.594c-.037-.263-.055-.642-.055-1.13 0-3.24 1.754-4.862 5.264-4.862h12.935c1.232 0 2.117.207 2.66.622s.812 1.11.812 2.091v1.922L96.721 53.106h8.736c1.717 0 2.959.319 3.725.961s1.148 1.715 1.148 3.222a16.26 16.26 0 0 1-.113 1.752H87.762zm36.959.339c-.336.149-1.268.225-2.799.225-3.212 0-4.815-1.563-4.815-4.691V19.193c.112-.036.448-.086 1.007-.141l1.568-.086c3.36 0 5.039 1.489 5.039 4.466V59.38zm22.735-5.146c1.233 0 2.288-.167 3.165-.508s1.613-.744 2.212-1.216l1.568-1.328a14.07 14.07 0 0 1 1.483 2.344c.429.847.644 1.517.644 2.008 0 .829-.468 1.583-1.4 2.261-.897.68-2.092 1.216-3.585 1.613s-3.099.592-4.815.592c-4.555 0-8.055-1.262-10.5-3.788s-3.668-6.198-3.668-11.021c0-2.863.551-5.313 1.653-7.348s2.633-3.599 4.592-4.691 4.152-1.639 6.58-1.639c3.657 0 6.486 1.067 8.483 3.194s2.996 5.058 2.996 8.79c0 1.808-.055 2.976-.168 3.505h-16.463c.149 2.336.84 4.125 2.072 5.369s2.949 1.864 5.151 1.864zm2.521-11.473c0-4.069-1.588-6.104-4.76-6.104-1.569 0-2.799.548-3.696 1.639s-1.343 2.582-1.343 4.466h9.801-.002zm22.117-7.799a8.42 8.42 0 0 1 2.716-2.486c1.1-.64 2.247-.961 3.444-.961 1.306 0 2.343.237 3.109.706s1.148 1.14 1.148 2.008c0 .452-.083 1.009-.251 1.667s-.391 1.34-.672 2.035a13.7 13.7 0 0 1-.922 1.894c-.711-.602-1.383-1.027-2.017-1.272s-1.343-.367-2.127-.367c-1.12 0-2.082.339-2.884 1.017s-1.204 1.491-1.204 2.432v17.408h-7.616V32.309l.671-.114c.597-.076 1.213-.112 1.849-.112 1.268 0 2.325.245 3.164.734s1.373 1.206 1.596 2.147l-.004-.002z" fill="#fff"/></svg>