<svg width="311" height="144" viewBox="0 0 311 144" fill="none" xmlns="http://www.w3.org/2000/svg">
<path d="M71.8518 121.152C53.523 121.152 36.8256 110.668 28.8607 94.1626L29.7484 93.7308C37.5213 109.78 54.0028 120.144 71.8278 120.144C89.6527 120.144 106.158 109.756 113.907 93.7308L114.795 94.1626C106.878 110.668 90.1565 121.176 71.8518 121.152Z" fill="white"/>
<path d="M113.931 53.139C106.158 37.0893 89.6528 26.7494 71.8518 26.7494C56.3299 26.7494 41.7917 34.4744 33.1071 47.3333C31.8596 49.1805 30.7321 51.1238 29.7484 53.139L28.8608 52.7072C40.3043 28.9565 68.853 19.0245 92.6036 30.4679C94.3069 31.2836 95.9623 32.1953 97.5217 33.2269C104.959 38.001 110.956 44.7423 114.795 52.7072L113.931 53.139Z" fill="white"/>
<path d="M15.9299 85.0704V62.0395H20.7999V85.0704H15.9299Z" fill="white"/>
<path d="M38.7931 78.6649C38.7931 80.752 38.0494 82.3834 36.562 83.5829C35.0746 84.7824 32.9874 85.3822 30.3244 85.3822C27.8774 85.3822 25.6943 84.9264 23.799 84.0148V79.4805C25.3584 80.1763 26.6779 80.6561 27.7575 80.944C28.837 81.2318 29.8206 81.3518 30.7083 81.3518C31.7879 81.3518 32.6035 81.1599 33.1793 80.728C33.7551 80.2962 34.043 79.7204 34.043 78.8808C34.043 78.425 33.923 78.0171 33.6591 77.6812C33.3952 77.3214 33.0354 76.9855 32.5316 76.6737C32.0518 76.3618 31.0442 75.834 29.5328 75.1143C28.1413 74.4665 27.0857 73.8188 26.366 73.219C25.6703 72.5953 25.1185 71.8995 24.6867 71.0839C24.2788 70.2682 24.0389 69.3326 24.0389 68.253C24.0389 66.2138 24.7347 64.6304 26.1261 63.4549C27.4936 62.2793 29.4128 61.7036 31.8598 61.7036C33.0594 61.7036 34.1869 61.8475 35.2905 62.1114C36.3941 62.3993 37.4976 62.7831 38.6971 63.3109L37.1138 67.1014C35.8663 66.5976 34.8826 66.2378 34.067 66.0458C33.2753 65.8539 32.4596 65.758 31.6919 65.758C30.7803 65.758 30.0606 65.9739 29.5568 66.4057C29.053 66.8375 28.813 67.4133 28.813 68.085C28.813 68.5169 28.909 68.8767 29.1009 69.2126C29.2929 69.5245 29.6287 69.8603 30.0606 70.1482C30.4924 70.4361 31.548 70.9879 33.1553 71.7556C35.3145 72.7872 36.7779 73.8188 37.5936 74.8504C38.4093 75.906 38.7931 77.1774 38.7931 78.6649Z" fill="white"/>
<path d="M62.4956 73.5309C62.4956 77.3454 61.56 80.2723 59.6647 82.3115C57.7695 84.3747 55.0825 85.3823 51.5319 85.3823C47.9813 85.3823 45.2944 84.3747 43.3991 82.3115C41.5039 80.2483 40.5683 77.3214 40.5683 73.483C40.5683 69.6445 41.5039 66.7176 43.3991 64.7024C45.2944 62.6872 48.0053 61.6796 51.5319 61.6796C55.0585 61.6796 57.7695 62.6872 59.6647 64.7264C61.536 66.7656 62.4956 69.7164 62.4956 73.5309ZM45.6782 73.5309C45.6782 76.0979 46.158 78.0412 47.1417 79.3367C48.1253 80.6321 49.5647 81.3039 51.5079 81.3039C55.3944 81.3039 57.3616 78.7129 57.3616 73.5309C57.3616 68.349 55.4184 65.758 51.5559 65.758C49.6127 65.758 48.1493 66.4058 47.1656 67.7252C46.182 69.0207 45.6782 70.94 45.6782 73.5309Z" fill="white"/>
<path d="M80.2726 71.8755C80.2726 76.4097 79.313 79.7924 77.3937 82.0235C75.4745 84.2546 72.5956 85.3822 68.7092 85.3822C67.3417 85.3822 66.3101 85.3102 65.6144 85.1663V81.2558C66.502 81.4717 67.4137 81.5917 68.3973 81.5917C70.0286 81.5917 71.3721 81.3518 72.4037 80.872C73.4593 80.3921 74.251 79.6245 74.8267 78.6169C75.3785 77.6092 75.7144 76.1938 75.7864 74.3945H75.6184C74.9947 75.3781 74.299 76.0738 73.5073 76.4817C72.7156 76.8895 71.708 77.0815 70.5084 77.0815C68.5172 77.0815 66.9099 76.4337 65.7583 75.1382C64.6068 73.8667 64.031 72.0674 64.031 69.7643C64.031 67.2933 64.7267 65.3501 66.1182 63.9107C67.5096 62.4712 69.4289 61.7515 71.8519 61.7515C73.5552 61.7515 75.0427 62.1593 76.3142 62.951C77.5857 63.7427 78.5693 64.9183 79.241 66.4297C79.9367 67.9651 80.2726 69.7643 80.2726 71.8755ZM71.9479 65.686C70.9403 65.686 70.1486 66.0218 69.5968 66.7176C69.045 67.4133 68.7332 68.4209 68.7332 69.7164C68.7332 70.8439 68.997 71.7076 69.5009 72.3793C70.0286 73.0271 70.7963 73.3629 71.8519 73.3629C72.8355 73.3629 73.6992 73.0511 74.3949 72.3793C75.0906 71.7316 75.4505 70.9879 75.4505 70.1482C75.4505 68.9007 75.1386 67.8451 74.4669 66.9814C73.7951 66.1178 72.9555 65.686 71.9479 65.686Z" fill="white"/>
<path d="M97.2575 73.5549C97.2575 77.5853 96.6097 80.5602 95.2903 82.4794C93.9708 84.4226 91.9316 85.3823 89.1967 85.3823C86.4617 85.3823 84.5425 84.3747 83.199 82.3834C81.8316 80.3922 81.1838 77.4414 81.1838 73.5549C81.1838 69.4765 81.8316 66.5017 83.151 64.5825C84.4705 62.6392 86.4857 61.6796 89.2206 61.6796C91.9556 61.6796 93.8988 62.6872 95.2423 64.7024C96.5617 66.7176 97.2575 69.6685 97.2575 73.5549ZM85.9819 73.5549C85.9819 76.3858 86.2218 78.401 86.7256 79.6245C87.2294 80.8481 88.0451 81.4718 89.1727 81.4718C90.3002 81.4718 91.1399 80.8481 91.6197 79.6245C92.1235 78.377 92.3874 76.3618 92.3874 73.5789C92.3874 70.796 92.1235 68.7328 91.6197 67.4853C91.0919 66.2378 90.3002 65.6381 89.1727 65.6381C88.0451 65.6381 87.2054 66.2618 86.7256 67.4853C86.2458 68.6849 85.9819 70.7241 85.9819 73.5549Z" fill="white"/>
<path d="M114.291 73.5549C114.291 77.5853 113.643 80.5602 112.324 82.4794C111.004 84.4226 108.965 85.3823 106.23 85.3823C103.495 85.3823 101.576 84.3747 100.233 82.3834C98.8652 80.3922 98.2174 77.4414 98.2174 73.5549C98.2174 69.4765 98.8652 66.5017 100.185 64.5825C101.504 62.6392 103.519 61.6796 106.254 61.6796C108.989 61.6796 110.932 62.6872 112.276 64.7024C113.595 66.7176 114.291 69.6685 114.291 73.5549ZM103.016 73.5549C103.016 76.3858 103.255 78.401 103.759 79.6245C104.263 80.8481 105.079 81.4718 106.206 81.4718C107.334 81.4718 108.173 80.8481 108.653 79.6245C109.157 78.377 109.421 76.3618 109.421 73.5789C109.421 70.796 109.157 68.7328 108.653 67.4853C108.126 66.2378 107.334 65.6381 106.206 65.6381C105.079 65.6381 104.239 66.2618 103.759 67.4853C103.279 68.6849 103.016 70.7241 103.016 73.5549Z" fill="white"/>
<path d="M127.366 85.0703H122.496V71.7316L122.544 69.5485L122.616 67.1494C121.8 67.9651 121.248 68.4929 120.936 68.7568L118.273 70.8919L115.922 67.9651L123.335 62.0634H127.318L127.366 85.0703Z" fill="white"/>
<path d="M16.9375 54.5545C17.2733 54.6744 17.4653 54.8904 17.5852 55.2022C17.7052 55.5141 17.6572 55.85 17.5132 56.2818C17.3453 56.7136 17.1774 57.0495 16.9855 57.2414L16.5776 57.0735C16.6976 56.9295 16.8175 56.7856 16.9135 56.6417C17.0094 56.4977 17.0814 56.3058 17.1774 56.1139C17.2733 55.826 17.2973 55.5861 17.2493 55.3942C17.2014 55.2262 17.0814 55.0823 16.8655 55.0103C16.7216 54.9623 16.6256 54.9623 16.5296 54.9623C16.4337 54.9863 16.3137 55.0343 16.2178 55.1303C16.1218 55.2262 15.9539 55.3942 15.7859 55.6101C15.522 55.898 15.2821 56.1139 15.0662 56.1858C14.8503 56.2578 14.5864 56.2578 14.2985 56.1619C14.0106 56.0659 13.8187 55.874 13.7227 55.5861C13.6268 55.2982 13.6508 54.9863 13.7707 54.6265C13.9147 54.2426 14.0826 53.9307 14.3465 53.6668L14.6824 53.9547C14.4425 54.2186 14.2745 54.4825 14.1546 54.7944C14.0826 55.0343 14.0586 55.2262 14.1066 55.3942C14.1546 55.5621 14.2745 55.682 14.4425 55.73C14.5864 55.778 14.6824 55.778 14.7783 55.778C14.8743 55.754 14.9702 55.706 15.0902 55.6101C15.2102 55.5381 15.3541 55.3702 15.498 55.1782C15.7859 54.8424 16.0258 54.6265 16.2417 54.5305C16.4337 54.4825 16.6736 54.4825 16.9375 54.5545Z" fill="white"/>
<path d="M18.4727 53.6428L14.8022 52.1074L14.9701 51.6995L18.6407 53.2349L18.4727 53.6428Z" fill="white"/>
<path d="M19.3126 49.2046C19.6245 49.3725 19.8164 49.5884 19.8884 49.9003C19.9364 50.2122 19.8884 50.572 19.7205 50.9559C19.5285 51.3637 19.3126 51.6756 19.0727 51.8435L18.6649 51.6516C18.8088 51.5316 18.9288 51.3877 19.0487 51.2437C19.1687 51.0758 19.2646 50.9319 19.3366 50.7399C19.4806 50.4521 19.5045 50.2122 19.4806 50.0442C19.4326 49.8523 19.3126 49.7084 19.1447 49.6364C19.0247 49.5884 18.9048 49.5644 18.8088 49.5644C18.7129 49.5884 18.5929 49.6124 18.473 49.7084C18.353 49.7803 18.1851 49.9243 17.9931 50.1162C17.7053 50.4041 17.4654 50.548 17.2254 50.644C16.9855 50.716 16.7456 50.692 16.4817 50.548C16.1939 50.4041 16.0499 50.2122 15.9539 49.9003C15.906 49.6124 15.93 49.3005 16.1219 48.9646C16.2898 48.6048 16.5297 48.3169 16.7936 48.077L17.0815 48.3649C16.8176 48.6048 16.6257 48.8687 16.4817 49.1326C16.3858 49.3485 16.3378 49.5404 16.3858 49.7084C16.4338 49.8763 16.5297 49.9962 16.6737 50.0922C16.7936 50.1402 16.9136 50.1642 17.0095 50.1642C17.1055 50.1642 17.2254 50.1162 17.3454 50.0442C17.4654 49.9962 17.6333 49.8523 17.8012 49.6364C18.1131 49.3245 18.377 49.1326 18.5929 49.0606C18.8328 49.0846 19.0727 49.0846 19.3126 49.2046Z" fill="white"/>
<path d="M21.5196 47.4053L21.3037 47.8131L18.185 46.0618L17.5612 47.1654L17.2014 46.9735L18.6648 44.3585L19.0246 44.5504L18.4009 45.654L21.5196 47.4053Z" fill="white"/>
<path d="M23.9429 43.4469L22.7194 45.2941L19.3847 43.135L20.6082 41.2877L20.9441 41.5036L19.9845 42.991L21.064 43.6868L21.9517 42.2953L22.2875 42.5112L21.3999 43.9027L22.6474 44.6944L23.607 43.2069L23.9429 43.4469Z" fill="white"/>
<path d="M25.8378 40.88L22.2152 39.8004L22.1913 39.8244C22.4312 39.9923 22.719 40.1602 23.0069 40.4002L25.0221 41.9595L24.7582 42.2954L21.5915 39.8484L21.9993 39.2966L25.382 40.3042L25.406 40.2802L23.5587 37.2574L23.9666 36.7056L27.1093 39.1287L26.8214 39.4885L24.7822 37.9051C24.5423 37.7372 24.3024 37.5213 24.0385 37.2814L24.0145 37.3054L25.9818 40.5441L25.8378 40.88Z" fill="white"/>
<path d="M29.9165 36.0339L28.645 35.5541L27.5654 36.7296L28.1652 37.9531L27.8533 38.289L25.958 34.4265L26.2219 34.1386L30.2284 35.674L29.9165 36.0339ZM28.2371 35.3861L27.0136 34.8823C26.8457 34.8343 26.6778 34.7384 26.4618 34.6184C26.5578 34.7624 26.6538 34.9303 26.7497 35.1462L27.3495 36.3217L28.2371 35.3861Z" fill="white"/>
<path d="M33.5389 29.8923C33.9708 30.3961 34.1867 30.8999 34.1387 31.3797C34.0907 31.8835 33.8268 32.3393 33.323 32.7952L32.4833 33.5389L29.8444 30.5401L30.756 29.7484C31.2118 29.3405 31.6917 29.1486 32.1715 29.1966C32.6993 29.1726 33.1311 29.4365 33.5389 29.8923ZM33.1791 30.2282C32.8432 29.8203 32.4833 29.6284 32.0995 29.6044C31.7157 29.5804 31.3318 29.7484 30.9719 30.0842L30.4681 30.5161L32.5553 32.9151L32.9632 32.5313C33.371 32.1714 33.6109 31.7876 33.6109 31.4037C33.6829 31.0439 33.5389 30.636 33.1791 30.2282Z" fill="white"/>
<path d="M37.7852 29.1965L36.0099 30.54L33.5868 27.3732L35.3621 26.0298L35.602 26.3416L34.2106 27.3972L34.9783 28.4048L36.2978 27.3972L36.5377 27.7091L35.2182 28.7167L36.1058 29.8922L37.4973 28.8366L37.7852 29.1965Z" fill="white"/>
<path d="M41.0723 24.5422L42.2238 23.8465L43.2314 25.5019C43.0875 25.6698 42.9436 25.8137 42.7516 25.9577C42.5837 26.1016 42.3678 26.2456 42.1279 26.3895C41.6001 26.7014 41.1203 26.7974 40.6405 26.6534C40.1607 26.5095 39.7528 26.1736 39.417 25.6218C39.201 25.262 39.0811 24.9021 39.0811 24.5662C39.0571 24.2064 39.1291 23.8945 39.321 23.5826C39.5129 23.2707 39.7768 23.0308 40.1367 22.8149C40.4965 22.599 40.8804 22.4551 41.2642 22.4071L41.3122 22.8389C40.9284 22.8869 40.5925 23.0069 40.3046 23.1748C39.8968 23.4387 39.6569 23.7506 39.5369 24.1344C39.4649 24.5183 39.5369 24.9261 39.8008 25.3819C40.0887 25.8377 40.4006 26.1256 40.7844 26.2216C41.1443 26.3175 41.5521 26.2456 42.0079 25.9817C42.2478 25.8377 42.4637 25.6938 42.6557 25.4779L42.0079 24.4223L41.2402 24.8781L41.0723 24.5422Z" fill="white"/>
<path d="M46.6135 23.9426L44.6463 24.9502L42.847 21.3996L44.8143 20.392L44.9822 20.7518L43.3988 21.5435L43.9746 22.6711L45.462 21.9273L45.6299 22.2872L44.1425 23.0309L44.7903 24.3504L46.3736 23.5587L46.6135 23.9426Z" fill="white"/>
<path d="M49.5646 21.4476C49.7086 21.7595 49.6846 22.0714 49.5407 22.3353C49.3727 22.6232 49.1088 22.8391 48.701 23.007C48.2692 23.1749 47.9093 23.2949 47.6214 23.2709L47.4535 22.8631C47.6214 22.8631 47.8133 22.8391 48.0053 22.8151C48.1972 22.7671 48.3891 22.7191 48.557 22.6472C48.8449 22.5272 49.0369 22.3833 49.1328 22.2153C49.2288 22.0474 49.2288 21.8555 49.1568 21.6875C49.1088 21.5676 49.0369 21.4716 48.9409 21.3996C48.8449 21.3517 48.749 21.3037 48.581 21.2797C48.4371 21.2557 48.2212 21.2557 47.9333 21.2797C47.5255 21.3037 47.2376 21.2557 47.0217 21.1597C46.8057 21.0638 46.6378 20.8719 46.5178 20.608C46.3979 20.3201 46.3979 20.0562 46.5418 19.7923C46.6858 19.5284 46.9257 19.3365 47.2855 19.1685C47.6454 19.0006 48.0053 18.9286 48.3891 18.9286L48.4131 19.3365C48.0532 19.3365 47.7414 19.3844 47.4535 19.5044C47.2376 19.6004 47.0696 19.7203 46.9977 19.8882C46.9257 20.0562 46.9017 20.2001 46.9737 20.3681C47.0217 20.488 47.0936 20.584 47.1656 20.6559C47.2376 20.7039 47.3575 20.7519 47.5015 20.7759C47.6454 20.7999 47.8373 20.7999 48.1012 20.7759C48.5331 20.7519 48.8689 20.7759 49.0848 20.8719C49.3247 21.0398 49.4687 21.2077 49.5646 21.4476Z" fill="white"/>
<path d="M52.4193 21.5436L51.9875 21.7116L50.788 18.3289L49.5885 18.7368L49.4445 18.3529L52.2514 17.3453L52.3954 17.7292L51.1958 18.137L52.4193 21.5436Z" fill="white"/>
<path d="M55.1063 16.1937C55.0344 16.2177 54.9384 16.2177 54.8664 16.2177C54.7945 16.1937 54.6985 16.1937 54.6265 16.1697C54.5546 16.1457 54.4586 16.1217 54.3866 16.1217C54.3147 16.0978 54.2427 16.0978 54.1947 16.1217C54.1227 16.1457 54.0508 16.1697 54.0268 16.2657C53.9788 16.3137 53.9788 16.4336 53.9788 16.5296L53.7149 16.6016C53.6669 16.3856 53.6909 16.1937 53.7629 16.0498C53.8109 15.9058 53.9308 15.8099 54.0987 15.7619C54.1707 15.7379 54.2667 15.7379 54.3386 15.7379C54.4106 15.7379 54.5066 15.7619 54.5785 15.7859C54.6505 15.8099 54.7465 15.8339 54.7945 15.8339C54.8424 15.8579 54.9384 15.8579 54.9864 15.8339C55.0584 15.8099 55.1303 15.7859 55.1543 15.6899C55.1783 15.6419 55.2023 15.522 55.2023 15.426L55.4662 15.354C55.5142 15.57 55.4902 15.7619 55.4182 15.9058C55.3702 16.0498 55.2503 16.1217 55.1063 16.1937ZM57.1455 20.1042L56.3299 19.0006L54.7945 19.4324L54.6505 20.7999L54.1947 20.9199L54.6265 16.6255L55.0104 16.5296L57.6014 19.9602L57.1455 20.1042ZM56.066 18.6408L55.2983 17.5852C55.2023 17.4412 55.0824 17.2973 54.9624 17.0814C54.9624 17.2493 54.9624 17.4652 54.9384 17.6811L54.8185 19.0006L56.066 18.6408Z" fill="white"/>
<path d="M61.6558 17.0813C61.7758 17.705 61.7038 18.2328 61.4879 18.6646C61.248 19.0725 60.8401 19.3364 60.2644 19.4563C59.6886 19.5763 59.2088 19.4803 58.8249 19.1924C58.4411 18.9045 58.1772 18.4247 58.0572 17.801C57.9373 17.1532 58.0093 16.6494 58.2252 16.2176C58.4651 15.8098 58.8729 15.5459 59.4727 15.4259C60.0245 15.306 60.5043 15.4019 60.8881 15.7138C61.296 15.9777 61.5359 16.4575 61.6558 17.0813ZM58.561 17.705C58.657 18.2328 58.8489 18.6166 59.1368 18.8326C59.4247 19.0725 59.7846 19.1205 60.1924 19.0485C60.6242 18.9765 60.9361 18.7606 61.08 18.4487C61.248 18.1368 61.272 17.705 61.176 17.1772C61.08 16.6494 60.8881 16.2896 60.6242 16.0497C60.3363 15.8337 60.0005 15.7618 59.5686 15.8337C59.1368 15.9057 58.8249 16.1216 58.657 16.4335C58.4651 16.7694 58.4411 17.1772 58.561 17.705Z" fill="white"/>
<path d="M68.493 16.3375C68.541 16.9852 68.3971 17.513 68.0852 17.8728C67.7493 18.2567 67.2455 18.4486 66.5978 18.5206L65.4942 18.5926L65.2063 14.6101L66.4298 14.5142C67.0536 14.4662 67.5574 14.5861 67.9172 14.922C68.2291 15.2339 68.445 15.7377 68.493 16.3375ZM68.0132 16.3854C67.9652 15.8576 67.8213 15.4978 67.5334 15.2579C67.2455 15.018 66.8617 14.922 66.3339 14.97L65.6621 15.018L65.902 18.1847L66.4538 18.1367C67.0056 18.0888 67.4134 17.9448 67.6773 17.6329C67.9412 17.3451 68.0612 16.9372 68.0132 16.3854Z" fill="white"/>
<path d="M72.3315 18.3048L70.1243 18.3528L70.0764 14.3704L72.2835 14.3224V14.7302L70.5322 14.7542L70.5562 16.0257L72.2115 16.0017V16.4096L70.5562 16.4336L70.5802 17.921L72.3315 17.897V18.3048Z" fill="white"/>
<path d="M79.4329 16.8414C79.3849 17.3452 79.2409 17.7531 79.001 18.0889C78.7611 18.4008 78.4493 18.6167 78.0654 18.6887L78.9051 19.7683L78.2093 19.6723L77.5376 18.6887L77.3697 18.6647C76.7939 18.6167 76.3621 18.3768 76.0742 17.993C75.7863 17.6091 75.6903 17.0813 75.7623 16.4336C75.8103 15.7858 76.0502 15.306 76.4101 14.9702C76.7699 14.6583 77.2257 14.5143 77.8255 14.5623C78.4013 14.6103 78.8331 14.8502 79.097 15.2341C79.3849 15.6899 79.4808 16.2177 79.4329 16.8414ZM76.2661 16.5056C76.2181 17.0334 76.2901 17.4652 76.482 17.7531C76.674 18.041 77.0098 18.2329 77.4416 18.2809C77.8735 18.3288 78.2094 18.2329 78.4732 17.969C78.7371 17.7051 78.8811 17.3212 78.9291 16.7695C78.977 16.2177 78.9051 15.8098 78.7371 15.5219C78.5452 15.2341 78.2094 15.0421 77.7775 14.9942C77.3457 14.9462 76.9858 15.0421 76.7459 15.306C76.482 15.5939 76.3141 15.9778 76.2661 16.5056Z" fill="white"/>
<path d="M84.327 15.6898L83.8472 18.2328C83.7752 18.6646 83.5593 19.0005 83.2474 19.2164C82.9355 19.4083 82.5277 19.4803 82.0719 19.3843C81.616 19.3124 81.2562 19.0964 81.0642 18.7846C80.8723 18.4967 80.7764 18.1128 80.8963 17.657L81.3761 15.114L81.8319 15.186L81.3521 17.729C81.3042 18.0409 81.3281 18.3287 81.4721 18.5207C81.616 18.7126 81.8799 18.8565 82.2158 18.9285C82.5517 18.9765 82.8156 18.9525 83.0315 18.8086C83.2474 18.6646 83.3673 18.4247 83.4393 18.1128L83.9191 15.5698L84.327 15.6898Z" fill="white"/>
<path d="M87.5655 20.6318L87.4215 19.2643L85.8862 18.8565L85.0945 19.9601L84.6386 19.8401L87.2056 16.3855L87.5895 16.4814L88.0693 20.7518L87.5655 20.6318ZM87.3976 18.8325L87.2776 17.513C87.2536 17.3451 87.2536 17.1532 87.2536 16.9133C87.1816 17.0812 87.0857 17.2251 86.9417 17.4411L86.174 18.5206L87.3976 18.8325Z" fill="white"/>
<path d="M89.077 21.0877L90.3724 17.3212L90.8043 17.4892L89.6527 20.8718L91.3081 21.4476L91.1641 21.8314L89.077 21.0877Z" fill="white"/>
<path d="M92.34 22.2873L93.8274 18.5688L94.2593 18.7367L92.7719 22.4552L92.34 22.2873Z" fill="white"/>
<path d="M98.0495 22.5751C97.7616 23.1749 97.4018 23.5587 96.922 23.7027C96.4662 23.8706 95.9144 23.7986 95.3146 23.5347L94.307 23.0789L96.0103 19.4563L97.1139 19.9841C97.6657 20.248 98.0255 20.6079 98.2175 21.0637C98.3374 21.5195 98.3134 22.0233 98.0495 22.5751ZM97.5937 22.4072C97.8096 21.9274 97.8576 21.5195 97.7376 21.1597C97.6177 20.7998 97.3298 20.5119 96.85 20.296L96.2262 20.0081L94.8588 22.911L95.3866 23.1509C95.8904 23.3908 96.3222 23.4388 96.6821 23.3188C97.0659 23.1749 97.3778 22.863 97.5937 22.4072Z" fill="white"/>
<path d="M100.617 26.3177L100.809 24.9503L99.4173 24.1826L98.3617 25.0462L97.9538 24.8063L101.312 22.0954L101.648 22.2873L101.049 26.5336L100.617 26.3177ZM100.905 24.5424L101.097 23.2469C101.121 23.079 101.145 22.8871 101.217 22.6472C101.097 22.7911 100.953 22.9351 100.785 23.055L99.7771 23.8947L100.905 24.5424Z" fill="white"/>
<path d="M105.75 27.2293C105.39 27.7571 104.959 28.093 104.479 28.1889C103.975 28.2849 103.471 28.1409 102.895 27.7811L101.984 27.1573L104.191 23.8466L105.199 24.5184C105.726 24.8542 106.014 25.2861 106.11 25.7659C106.206 26.2217 106.086 26.7255 105.75 27.2293ZM105.319 26.9654C105.606 26.5336 105.726 26.1257 105.63 25.7659C105.558 25.406 105.319 25.0702 104.887 24.7823L104.335 24.3984L102.56 27.0614L103.039 27.3732C103.495 27.6611 103.927 27.7811 104.287 27.7331C104.695 27.6611 105.031 27.3972 105.319 26.9654Z" fill="white"/>
<path d="M107.526 31.1637L105.774 29.7962L108.221 26.6535L109.973 28.0209L109.709 28.3328L108.317 27.2532L107.526 28.2608L108.821 29.2684L108.557 29.5803L107.262 28.5727L106.374 29.7242L107.766 30.8038L107.526 31.1637Z" fill="white"/>
<path d="M112.612 35.8419L112.3 35.5301L113.596 33.059C113.643 32.9391 113.739 32.8191 113.811 32.6512C113.907 32.4833 113.979 32.3873 113.979 32.3633C113.787 32.5073 113.572 32.6512 113.284 32.7711L110.861 34.1146L110.549 33.8027L112.612 30.2042L112.972 30.54L111.7 32.7232C111.532 33.0111 111.34 33.2989 111.172 33.5149C111.436 33.3229 111.724 33.131 112.012 32.9871L114.219 31.7635L114.579 32.0994L113.404 34.3785C113.26 34.6424 113.116 34.9063 112.876 35.2182C113.068 35.0502 113.356 34.8823 113.667 34.6904L115.851 33.3709L116.21 33.7068L112.612 35.8419Z" fill="white"/>
<path d="M114.123 37.4973L117.122 34.8583L117.41 35.1942L114.411 37.8332L114.123 37.4973Z" fill="white"/>
<path d="M116.282 40.0643L115.994 39.7044L118.777 37.4733L117.985 36.4897L118.297 36.2258L120.169 38.5528L119.857 38.8167L119.065 37.8331L116.282 40.0643Z" fill="white"/>
<path d="M119.137 43.9747L117.553 41.7196L117.841 41.5277L121.704 41.4317L120.528 39.7524L120.864 39.5125L122.352 41.6476L122.064 41.8395L118.225 41.9355L119.473 43.7108L119.137 43.9747Z" fill="white"/>
<path d="M119.857 45.0782L123.264 42.9911L123.503 43.3989L120.457 45.2462L121.368 46.7336L121.008 46.9495L119.857 45.0782Z" fill="white"/>
<path d="M122.64 50.0203L121.608 48.0531L125.135 46.2058L126.166 48.1731L125.806 48.365L124.991 46.8056L123.863 47.4054L124.631 48.8688L124.271 49.0607L123.503 47.5973L122.208 48.269L123.023 49.8284L122.64 50.0203Z" fill="white"/>
<path d="M124.967 51.0759L123.455 51.7477L123.287 51.3398L126.934 49.7325L127.366 50.7401C127.558 51.1719 127.63 51.5557 127.534 51.8436C127.462 52.1315 127.246 52.3714 126.886 52.4914C126.406 52.7073 125.974 52.6113 125.59 52.2035L124.391 53.9308L124.175 53.427L125.303 51.8676L124.967 51.0759ZM125.351 50.884L125.614 51.4598C125.758 51.7477 125.902 51.9636 126.094 52.0356C126.262 52.1075 126.502 52.1075 126.718 52.0116C126.958 51.9156 127.102 51.7477 127.126 51.5797C127.15 51.4118 127.126 51.1479 126.982 50.812L126.742 50.2603L125.351 50.884Z" fill="white"/>
<path d="M38.649 123.767L38.2652 123.503L39.0808 120.84C39.1288 120.72 39.1528 120.576 39.2248 120.408C39.2728 120.241 39.3207 120.121 39.3447 120.097C39.1768 120.265 38.9849 120.456 38.745 120.648L36.6338 122.424L36.25 122.16L37.5694 118.249L37.9773 118.537L37.1376 120.936C37.0177 121.272 36.8977 121.584 36.7777 121.824C36.9937 121.56 37.2336 121.344 37.4975 121.128L39.4407 119.521L39.8485 119.809L39.1048 122.256C39.0329 122.544 38.9129 122.855 38.769 123.167C38.9369 122.975 39.1768 122.76 39.4407 122.496L41.312 120.792L41.7198 121.08L38.649 123.767Z" fill="white"/>
<path d="M40.7843 125.039L42.7515 121.56L43.1593 121.8L41.1921 125.279L40.7843 125.039Z" fill="white"/>
<path d="M43.8788 126.694L43.471 126.478L45.0784 123.287L43.9508 122.712L44.1187 122.352L46.7817 123.719L46.6138 124.079L45.4862 123.503L43.8788 126.694Z" fill="white"/>
<path d="M48.4849 128.805L45.9659 127.726L46.1099 127.39L49.3246 125.279L47.4533 124.463L47.6213 124.079L50.0203 125.111L49.8764 125.447L46.6616 127.558L48.6528 128.421L48.4849 128.805Z" fill="white"/>
<path d="M49.9247 129.333L51.2682 125.59L51.7 125.758L50.5005 129.117L52.1558 129.717L52.0119 130.125L49.9247 129.333Z" fill="white"/>
<path d="M55.5145 131.132L53.3793 130.508L54.4829 126.67L56.618 127.294L56.4981 127.702L54.7947 127.222L54.4349 128.469L56.0423 128.925L55.9223 129.333L54.3149 128.877L53.9071 130.293L55.6104 130.772L55.5145 131.132Z" fill="white"/>
<path d="M57.9374 130.005L57.5776 131.612L57.1217 131.516L57.9614 127.63L59.041 127.87C59.5208 127.965 59.8567 128.157 60.0486 128.373C60.2165 128.613 60.2885 128.901 60.2165 129.261C60.0966 129.789 59.7607 130.053 59.2089 130.149L59.8807 132.116L59.3529 131.996L58.7531 130.149L57.9374 130.005ZM58.0094 129.645L58.6331 129.789C58.945 129.837 59.1849 129.837 59.3769 129.741C59.5448 129.645 59.6647 129.477 59.7127 129.213C59.7607 128.949 59.7367 128.757 59.6168 128.613C59.4968 128.469 59.2569 128.349 58.921 128.277L58.3213 128.157L58.0094 129.645Z" fill="white"/>
<path d="M65.6144 132.931L63.4073 132.668L63.8391 128.685L66.0462 128.949L65.9982 129.357L64.2469 129.165L64.103 130.436L65.7343 130.604L65.6864 131.012L64.055 130.844L63.8871 132.308L65.6384 132.5L65.6144 132.931Z" fill="white"/>
<path d="M70.4123 133.219L69.8845 133.195L67.8453 129.765H67.8213C67.8453 130.173 67.8453 130.533 67.8213 130.844L67.7253 133.124L67.3175 133.1L67.4854 129.117L68.0132 129.141L70.0524 132.548H70.0764V131.492L70.1724 129.189L70.6042 129.213L70.4123 133.219Z" fill="white"/>
<path d="M74.491 133.124L72.2839 133.172L72.1639 129.189L74.3711 129.141L74.3951 129.549L72.6438 129.597L72.6917 130.868L74.3471 130.82L74.3711 131.228L72.7157 131.276L72.7637 132.764L74.515 132.716V133.124H74.491Z" fill="white"/>
<path d="M76.4579 131.324L76.6259 132.979L76.17 133.027L75.7862 129.045L76.8898 128.949C77.3696 128.901 77.7534 128.973 77.9933 129.117C78.2332 129.285 78.4012 129.549 78.4252 129.909C78.4731 130.436 78.2572 130.796 77.7294 131.036L78.9769 132.716L78.4491 132.764L77.3216 131.204L76.4579 131.324ZM76.4099 130.94L77.0577 130.892C77.3696 130.844 77.6095 130.772 77.7534 130.628C77.8974 130.484 77.9453 130.292 77.9213 130.029C77.8974 129.765 77.8014 129.597 77.6335 129.501C77.4655 129.405 77.2256 129.357 76.8658 129.405L76.266 129.453L76.4099 130.94Z" fill="white"/>
<path d="M81.7357 130.197L83.0791 129.957L83.391 131.876C83.1991 131.972 82.9832 132.044 82.7912 132.14C82.5993 132.236 82.3354 132.284 82.0475 132.308C81.4478 132.404 80.944 132.308 80.5601 132.02C80.1523 131.732 79.9124 131.252 79.7924 130.628C79.7205 130.221 79.7444 129.861 79.8404 129.501C79.9604 129.165 80.1283 128.877 80.4162 128.685C80.7041 128.469 81.0399 128.325 81.4478 128.253C81.8556 128.181 82.2635 128.205 82.6713 128.277L82.5753 128.709C82.1915 128.637 81.8316 128.613 81.5197 128.661C81.0399 128.733 80.7041 128.949 80.4882 129.285C80.2722 129.621 80.2003 130.053 80.2962 130.532C80.3922 131.06 80.5841 131.444 80.896 131.66C81.1839 131.9 81.6157 131.948 82.1195 131.876C82.4074 131.828 82.6473 131.756 82.8872 131.636L82.6953 130.412L81.8076 130.58L81.7357 130.197Z" fill="white"/>
<path d="M85.0945 131.66L84.2069 127.774L84.6627 127.678L85.5504 131.564L85.0945 131.66Z" fill="white"/>
<path d="M89.7487 130.389L88.909 129.309L87.3736 129.741L87.2537 131.108L86.7979 131.252L87.2057 126.958L87.5895 126.862L90.2045 130.269L89.7487 130.389ZM88.6691 128.949L87.8774 127.894C87.7815 127.75 87.6615 127.606 87.5416 127.39C87.5655 127.558 87.5416 127.774 87.5416 127.989L87.4456 129.309L88.6691 128.949Z" fill="white"/>
<path d="M93.4673 129.093L91.9799 125.399L92.4117 125.231L93.7552 128.541L95.3865 127.894L95.5545 128.301L93.4673 129.093Z" fill="white"/>
<path d="M97.9775 127.15L97.5697 127.342L96.0343 124.103L94.9067 124.631L94.7388 124.247L97.4257 122.951L97.5936 123.335L96.4661 123.863L97.9775 127.15Z" fill="white"/>
<path d="M102.104 122.616C102.415 123.191 102.511 123.719 102.391 124.199C102.248 124.679 101.888 125.087 101.312 125.423L100.352 125.95L98.385 122.472L99.4406 121.872C99.9684 121.584 100.472 121.464 100.952 121.608C101.432 121.752 101.792 122.064 102.104 122.616ZM101.672 122.88C101.408 122.424 101.12 122.136 100.76 122.04C100.4 121.944 99.9924 122.016 99.5606 122.28L98.9848 122.616L100.568 125.399L101.072 125.111C101.552 124.823 101.84 124.511 101.96 124.127C102.008 123.743 101.936 123.335 101.672 122.88Z" fill="white"/>
<path d="M106.614 122.064L105.486 121.296L104.167 122.184L104.455 123.503L104.047 123.767L103.135 119.545L103.447 119.329L106.974 121.776L106.614 122.064ZM105.127 121.032L104.047 120.265C103.903 120.169 103.759 120.049 103.567 119.881C103.615 120.049 103.687 120.241 103.735 120.456L104.023 121.752L105.127 121.032Z" fill="white"/>
<path d="M107.766 120.888C107.694 120.792 107.67 120.72 107.67 120.6C107.67 120.528 107.718 120.432 107.814 120.384C107.886 120.337 107.982 120.313 108.077 120.313C108.173 120.313 108.245 120.385 108.317 120.48C108.389 120.576 108.413 120.648 108.413 120.768C108.413 120.84 108.365 120.936 108.269 120.984C108.197 121.032 108.101 121.056 108.03 121.056C107.934 121.032 107.838 120.984 107.766 120.888Z" fill="white"/>
<path d="M71.9716 143.943C32.2912 143.943 0 111.652 0 71.9716C0 32.2912 32.2912 0 71.9716 0C111.652 0 143.943 32.2912 143.943 71.9716C143.943 111.652 111.652 143.943 71.9716 143.943ZM71.9716 1.43943C33.0829 1.43943 1.43943 33.0829 1.43943 71.9716C1.43943 110.86 33.0829 142.504 71.9716 142.504C110.86 142.504 142.504 110.86 142.504 71.9716C142.504 33.0829 110.86 1.43943 71.9716 1.43943Z" fill="white"/>
<path d="M238.844 143.943C199.163 143.943 166.872 111.652 166.872 71.9716C166.872 32.2912 199.163 0 238.844 0C278.524 0 310.815 32.2912 310.815 71.9716C310.815 111.652 278.524 143.943 238.844 143.943ZM238.844 1.43943C199.955 1.43943 168.312 33.0829 168.312 71.9716C168.312 110.86 199.955 142.504 238.844 142.504C277.732 142.504 309.376 110.86 309.376 71.9716C309.376 33.0829 277.732 1.43943 238.844 1.43943Z" fill="white"/>
<path d="M191.966 125.614C189.663 123.647 187.504 121.536 185.489 119.281L191.966 125.614Z" fill="white"/>
<path d="M238.604 121.032C220.371 121.032 203.721 110.596 195.805 94.1628L196.692 93.731C204.417 109.733 220.851 120.049 238.604 120.049C256.357 120.049 272.79 109.709 280.515 93.731L281.403 94.1628C273.486 110.596 256.836 121.056 238.604 121.032Z" fill="white"/>
<path d="M280.515 53.3069C272.79 37.3292 256.333 27.0133 238.604 27.0133C223.13 27.0133 208.663 34.6902 200.027 47.5252C198.779 49.3724 197.652 51.3157 196.692 53.3069L195.805 52.8751C207.224 29.2204 235.653 19.3123 259.283 30.7318C260.963 31.5475 262.618 32.4591 264.202 33.4667C271.615 38.2169 277.588 44.9342 281.427 52.8751L280.515 53.3069Z" fill="white"/>
<path d="M183.521 50.1641C183.282 50.2121 183.066 50.38 182.994 50.6199C182.85 50.9558 182.874 51.3636 183.258 51.5315C183.545 51.6515 183.761 51.5315 184.121 51.0997C184.481 50.6679 184.841 50.26 185.465 50.5239C186.088 50.7878 186.184 51.4596 185.944 52.0353C185.825 52.4192 185.489 52.7311 185.105 52.851L184.961 52.4192C185.249 52.3712 185.489 52.1553 185.609 51.8914C185.729 51.5555 185.705 51.1237 185.321 50.9558C184.961 50.8118 184.745 51.0277 184.337 51.5315C184.001 51.9394 183.665 52.1793 183.138 51.9634C182.514 51.7235 182.418 51.0517 182.658 50.4999C182.778 50.1401 183.042 49.8762 183.401 49.7562L183.521 50.1641Z" fill="white"/>
<path d="M184.422 46.7065L184.243 47.0728L187.346 48.591L187.525 48.2247L184.422 46.7065Z" fill="white"/>
<path d="M187.096 43.015C186.832 43.039 186.616 43.183 186.496 43.4229C186.304 43.7347 186.28 44.1426 186.64 44.3585C186.928 44.5264 187.12 44.4305 187.552 44.0466C187.984 43.6628 188.368 43.3269 188.967 43.6388C189.567 43.9746 189.543 44.6464 189.231 45.1982C189.039 45.558 188.704 45.8219 188.272 45.8939L188.2 45.4381C188.488 45.4141 188.775 45.2461 188.895 44.9822C189.063 44.6704 189.087 44.2146 188.752 44.0226C188.416 43.8307 188.176 44.0226 187.696 44.4545C187.312 44.7903 186.952 45.0062 186.448 44.7184C185.873 44.3825 185.873 43.7347 186.161 43.207C186.328 42.8711 186.64 42.6312 187 42.5592L187.096 43.015Z" fill="white"/>
<path d="M189.879 38.3128L189.207 39.2724L191.75 41.0237L191.534 41.3596L188.991 39.6083L188.344 40.5439L188.032 40.328L189.543 38.0969L189.879 38.3128Z" fill="white"/>
<path d="M191.102 36.0817L192.47 34.3784L192.758 34.6183L191.654 35.9858L192.494 36.6815L193.525 35.41L193.837 35.6499L192.782 36.9214L193.741 37.7131L194.917 36.2497L195.205 36.4896L193.789 38.2649L191.102 36.0817Z" fill="white"/>
<path d="M194.341 32.2433L194.773 31.8115L197.532 32.891L196.428 30.1321L196.86 29.7003L199.307 32.1473L199.019 32.4352L196.956 30.372L198.156 33.2989L197.988 33.4908L195.037 32.3392L197.1 34.3784L196.812 34.6903L194.341 32.2433Z" fill="white"/>
<path d="M199.955 26.9894L200.243 26.7495L203.578 28.4768L203.218 28.7887L202.402 28.3568L201.083 29.4604L201.346 30.348L200.987 30.6359L199.955 26.9894ZM200.435 27.2773L200.963 29.0526L202.042 28.1409L200.435 27.2773Z" fill="white"/>
<path d="M206.193 22.4072L207.344 21.7354C208.16 21.2316 209.239 21.5195 209.719 22.3352C210.223 23.1509 209.935 24.2304 209.12 24.7103L207.968 25.382L206.193 22.4072ZM208.136 24.8542L208.808 24.4464C209.479 24.0385 209.791 23.3908 209.311 22.5751C208.808 21.7594 208.112 21.7354 207.416 22.1433L206.744 22.5511L208.136 24.8542Z" fill="white"/>
<path d="M211.231 19.5764L213.198 18.6167L213.366 18.9766L211.782 19.7443L212.262 20.7039L213.726 20.0082L213.894 20.3441L212.406 21.0638L212.934 22.1673L214.613 21.3517L214.781 21.7115L212.742 22.6951L211.231 19.5764Z" fill="white"/>
<path d="M222.722 18.5447C222.41 18.8806 222.002 19.0965 221.57 19.2404C220.539 19.5523 219.579 19.0965 219.267 18.0409C218.955 17.0093 219.507 16.0497 220.515 15.7378C220.947 15.5939 221.402 15.6178 221.81 15.8098L221.618 16.2176C221.307 16.0497 220.947 16.0017 220.611 16.1216C219.843 16.3616 219.435 17.1772 219.699 17.9449C219.939 18.6886 220.755 19.1205 221.522 18.8566C221.81 18.7606 222.074 18.6167 222.29 18.4007L221.978 17.3931L221.211 17.633L221.091 17.2732L222.242 16.9133L222.722 18.5447Z" fill="white"/>
<path d="M224.641 14.7302L226.777 14.2744L226.873 14.6343L225.121 15.0181L225.361 16.0737L226.969 15.7378L227.04 16.0977L225.433 16.4336L225.697 17.6571L227.496 17.2732L227.592 17.6331L225.361 18.1129L224.641 14.7302Z" fill="white"/>
<path d="M231.263 14.2024C231.095 14.0105 230.855 13.9145 230.591 13.9625C230.231 14.0105 229.871 14.2264 229.919 14.6342C229.967 14.9461 230.159 15.066 230.735 15.162C231.311 15.258 231.814 15.3779 231.886 16.0497C231.982 16.7214 231.43 17.1292 230.807 17.2012C230.399 17.2732 229.991 17.1532 229.679 16.8653L229.991 16.5295C230.183 16.7694 230.471 16.8653 230.783 16.8174C231.143 16.7694 231.502 16.5055 231.454 16.1216C231.407 15.6898 231.095 15.6658 230.471 15.5459C229.967 15.4499 229.559 15.282 229.487 14.7062C229.415 14.0345 229.919 13.6506 230.519 13.5786C230.879 13.5067 231.263 13.6026 231.526 13.8665L231.263 14.2024Z" fill="white"/>
<path d="M236.661 13.5787L235.509 13.6506L235.653 16.7214L235.245 16.7454L235.101 13.6506L233.95 13.7226V13.3388L236.637 13.1948L236.661 13.5787Z" fill="white"/>
<path d="M240.331 13.2427L240.715 13.2667L242.058 16.7933L241.579 16.7693L241.267 15.9057L239.539 15.8337L239.131 16.6734L238.676 16.6494L240.331 13.2427ZM239.707 12.9069C239.731 12.643 239.947 12.4271 240.211 12.4271C240.355 12.4511 240.475 12.499 240.619 12.547C240.691 12.595 240.787 12.619 240.883 12.643C241.027 12.643 241.075 12.547 241.123 12.4511H241.363C241.315 12.691 241.171 12.9549 240.883 12.9309C240.739 12.9069 240.619 12.8829 240.475 12.8109C240.379 12.7629 240.259 12.7149 240.163 12.7149C240.043 12.7149 239.947 12.8109 239.923 12.9069H239.707ZM240.499 13.7705L239.707 15.4499L241.123 15.4978L240.499 13.7705Z" fill="white"/>
<path d="M244.337 15.234C244.481 14.2504 245.393 13.5547 246.377 13.6986C247.36 13.8426 248.056 14.7542 247.912 15.7378C247.768 16.7215 246.856 17.4172 245.873 17.2732C244.913 17.1773 244.217 16.3136 244.313 15.33C244.313 15.306 244.313 15.282 244.337 15.234ZM247.48 15.6659C247.6 14.8742 247.12 14.1545 246.329 14.0585C245.513 13.9386 244.889 14.5143 244.769 15.306C244.649 16.0977 245.129 16.8174 245.921 16.9134C246.736 17.0093 247.384 16.4576 247.48 15.6659Z" fill="white"/>
<path d="M255.229 15.6897L255.589 15.8097L255.997 19.5522L255.541 19.4083L255.445 18.4966L253.79 17.9928L253.19 18.7125L252.758 18.5686L255.229 15.6897ZM255.253 16.2415L254.078 17.657L255.421 18.0648L255.253 16.2415Z" fill="white"/>
<path d="M259.451 17.1053L259.931 17.2972L260.699 20.7278L261.803 18.0649L262.186 18.2088L260.867 21.4235L260.387 21.2076L259.619 17.801L258.516 20.4639L258.132 20.296L259.451 17.1053Z" fill="white"/>
<path d="M266.744 20.8957L265.713 20.3679L264.297 23.1028L263.938 22.9109L265.353 20.176L264.345 19.6482L264.513 19.3123L266.912 20.5598L266.744 20.8957Z" fill="white"/>
<path d="M269.096 21.8315L269.456 22.0474L267.632 24.9982L267.296 24.7823L269.096 21.8315Z" fill="white"/>
<path d="M272.862 25.0701C272.862 24.8062 272.742 24.5903 272.526 24.4463C272.238 24.2304 271.831 24.1584 271.591 24.4943C271.399 24.7582 271.471 24.9741 271.807 25.4299C272.166 25.8857 272.454 26.3176 272.071 26.8694C271.687 27.4211 270.991 27.3492 270.487 26.9893C270.127 26.7734 269.911 26.3895 269.887 25.9817L270.343 25.9577C270.319 26.2456 270.463 26.5335 270.727 26.7014C271.015 26.8933 271.471 26.9653 271.687 26.6534C271.903 26.3416 271.735 26.0777 271.351 25.5499C271.039 25.142 270.871 24.7582 271.207 24.2784C271.591 23.7266 272.238 23.7986 272.742 24.1344C273.054 24.3264 273.27 24.6622 273.294 25.0221L272.862 25.0701Z" fill="white"/>
<path d="M276.341 29.8201C275.861 30.3959 275.165 30.6598 274.422 30.06C273.702 29.4363 273.846 28.7166 274.326 28.1408L275.717 26.5094L276.029 26.7733L274.686 28.3567C274.326 28.7885 274.134 29.3163 274.662 29.7722C275.189 30.228 275.693 29.9401 276.053 29.5323L277.396 27.9489L277.708 28.2128L276.341 29.8201Z" fill="white"/>
<path d="M279.892 30.18L280.635 30.9237C281.043 31.3315 281.283 31.8833 280.827 32.3391C280.563 32.603 280.155 32.675 279.844 32.4591C280.132 32.795 280.108 33.2988 279.796 33.6106C279.244 34.1384 278.596 33.7786 278.164 33.3227L277.445 32.579L279.892 30.18ZM277.972 32.627L278.452 33.1308C278.74 33.4187 279.148 33.6106 279.46 33.2988C279.796 32.9629 279.628 32.5551 279.34 32.2672L278.836 31.7634L277.972 32.627ZM279.124 31.4995L279.532 31.9073C279.796 32.1952 280.155 32.4111 280.491 32.0752C280.803 31.7874 280.611 31.4515 280.347 31.1876L279.916 30.7558L279.124 31.4995Z" fill="white"/>
<path d="M281.978 34.9062C282.746 34.2824 283.898 34.4024 284.521 35.1701C285.145 35.9378 285.025 37.0893 284.258 37.7131C283.49 38.3368 282.338 38.2169 281.715 37.4492C281.067 36.7055 281.163 35.6019 281.883 34.9781C281.93 34.9541 281.954 34.9302 281.978 34.9062ZM283.994 37.3532C284.617 36.8494 284.761 36.0097 284.234 35.386C283.73 34.7622 282.866 34.7382 282.242 35.242C281.619 35.7458 281.475 36.5855 282.002 37.2093C282.53 37.833 283.37 37.857 283.994 37.3532Z" fill="white"/>
<path d="M287.232 38.8646L287.736 39.6083C288.12 40.1601 288.432 40.8078 287.712 41.2876C287.304 41.5755 286.849 41.4795 286.465 41.0717L285.697 42.775L285.409 42.3672L286.177 40.7118L285.889 40.28L284.594 41.1437L284.354 40.8078L287.232 38.8646ZM286.201 40.0401L286.393 40.352C286.657 40.7358 286.969 41.2156 287.448 40.9038C287.856 40.6159 287.688 40.232 287.448 39.8962L287.137 39.4164L286.201 40.0401Z" fill="white"/>
<path d="M289.968 43.1589L290.232 43.6147L288.648 46.7575L291.191 45.366L291.383 45.7259L288.336 47.4052L288.096 46.9494L289.656 43.8066L287.137 45.1741L286.945 44.8142L289.968 43.1589Z" fill="white"/>
<path d="M290.999 48.9166C291.935 48.5328 292.99 48.9646 293.374 49.9002C293.758 50.8359 293.326 51.8914 292.391 52.2753C291.479 52.6591 290.423 52.2273 290.04 51.2917C289.632 50.404 290.04 49.3724 290.927 48.9646C290.951 48.9406 290.975 48.9406 290.999 48.9166ZM292.247 51.8675C292.99 51.5556 293.35 50.7879 293.038 50.0442C292.727 49.3005 291.911 49.0366 291.191 49.3484C290.447 49.6603 290.088 50.428 290.399 51.1717C290.687 51.8675 291.479 52.2033 292.199 51.9154C292.199 51.8675 292.223 51.8675 292.247 51.8675Z" fill="white"/>
<path d="M185.393 62.5912H180.979V83.463H185.393V62.5912Z" fill="white"/>
<path d="M201.514 77.6574C201.514 79.5526 200.843 81.016 199.475 82.1196C198.132 83.1992 196.237 83.751 193.813 83.751C191.582 83.751 189.615 83.3431 187.912 82.5034V78.4011C189.063 78.9289 190.263 79.3847 191.486 79.7205C192.35 79.9605 193.262 80.0804 194.173 80.1044C195.133 80.1044 195.901 79.9125 196.404 79.5526C196.932 79.1928 197.172 78.641 197.172 77.8973C197.172 77.5134 197.052 77.1296 196.836 76.8177C196.548 76.4578 196.213 76.146 195.829 75.9061C194.965 75.3783 194.053 74.8985 193.118 74.4906C191.846 73.8909 190.887 73.3151 190.239 72.7633C189.615 72.2355 189.087 71.5638 188.703 70.8441C188.32 70.0524 188.104 69.1647 188.128 68.2771C188.128 66.4298 188.751 64.9904 189.999 63.9348C191.246 62.8792 192.974 62.3514 195.181 62.3514C196.237 62.3514 197.268 62.4714 198.276 62.7353C199.331 63.0231 200.363 63.383 201.37 63.8148L199.955 67.2455C199.067 66.8616 198.132 66.5497 197.196 66.2859C196.5 66.1179 195.781 66.022 195.037 66.022C194.197 66.022 193.55 66.2139 193.118 66.5977C192.662 66.9816 192.422 67.5334 192.446 68.1331C192.446 68.493 192.542 68.8528 192.71 69.1407C192.926 69.4766 193.238 69.7645 193.574 69.9804C193.981 70.2443 194.917 70.7481 196.38 71.4438C198.324 72.3794 199.667 73.3151 200.387 74.2507C201.155 75.1624 201.514 76.3139 201.514 77.6574Z" fill="white"/>
<path d="M222.482 73.0032C222.482 76.4578 221.619 79.1208 219.915 80.9681C218.212 82.8153 215.741 83.751 212.55 83.751C209.359 83.751 206.888 82.8153 205.185 80.9681C203.482 79.1208 202.618 76.4578 202.618 72.9792C202.618 69.5006 203.482 66.8616 205.209 65.0384C206.936 63.2151 209.383 62.3034 212.598 62.2794C215.813 62.2794 218.26 63.1911 219.963 65.0384C221.643 66.8856 222.482 69.5486 222.482 73.0032ZM207.272 73.0032C207.272 75.3303 207.704 77.0816 208.592 78.2811C209.479 79.4567 210.799 80.0564 212.574 80.0564C216.101 80.0564 217.876 77.7054 217.876 73.0272C217.876 68.349 216.125 65.998 212.598 65.974C210.847 65.974 209.503 66.5737 208.616 67.7493C207.728 68.9008 207.272 70.6761 207.272 73.0032Z" fill="white"/>
<path d="M237.668 67.2695C237.692 68.493 237.284 69.6685 236.469 70.6042C235.677 71.5158 234.574 72.1396 233.134 72.4754V72.5714C234.813 72.7873 236.085 73.2911 236.949 74.1068C237.812 74.9225 238.244 76.026 238.244 77.3935C238.244 79.4087 237.524 80.9681 236.061 82.0716C234.598 83.1992 232.534 83.751 229.823 83.751C227.568 83.751 225.553 83.3671 223.802 82.6234V78.8809C224.665 79.3127 225.553 79.6486 226.465 79.8645C227.4 80.1284 228.384 80.2484 229.344 80.2484C230.807 80.2484 231.887 80.0084 232.558 79.5047C233.23 79.0008 233.59 78.2092 233.59 77.1296C233.59 76.146 233.182 75.4503 232.39 75.0424C231.599 74.6346 230.327 74.4426 228.576 74.4426H226.993V71.06H228.6C230.207 71.06 231.407 70.8441 232.15 70.4362C232.894 70.0044 233.278 69.2847 233.278 68.2531C233.278 66.6697 232.294 65.878 230.303 65.878C229.584 65.878 228.888 65.998 228.216 66.2139C227.376 66.5018 226.585 66.9096 225.841 67.4134L223.802 64.3666C225.697 62.9992 227.976 62.3035 230.615 62.3035C232.774 62.3035 234.478 62.7353 235.725 63.6229C237.045 64.4866 237.668 65.7101 237.668 67.2695Z" fill="white"/>
<path d="M241.195 83.4631L249.016 66.3339H238.724V62.6154H253.694V65.3983L245.801 83.4631H241.195Z" fill="white"/>
<path d="M268.808 73.0272C268.808 76.6737 268.208 79.3607 267.008 81.112C265.809 82.8633 263.986 83.7269 261.491 83.7269C258.996 83.7269 257.268 82.8153 256.045 81.016C254.821 79.2167 254.221 76.5298 254.221 73.0032C254.221 69.4766 254.821 66.5977 256.021 64.8464C257.22 63.0951 259.044 62.2314 261.515 62.2314C263.986 62.2314 265.737 63.1431 266.96 64.9663C268.184 66.8376 268.808 69.5006 268.808 73.0272ZM258.612 73.0272C258.612 75.5942 258.828 77.4174 259.283 78.521C259.715 79.6246 260.459 80.1763 261.515 80.1763C262.57 80.1763 263.29 79.6246 263.746 78.497C264.202 77.3695 264.441 75.5462 264.441 73.0272C264.441 70.5082 264.202 68.6369 263.746 67.5093C263.29 66.3818 262.546 65.83 261.539 65.83C260.531 65.83 259.763 66.3818 259.307 67.5093C258.828 68.6369 258.612 70.4602 258.612 73.0272Z" fill="white"/>
<path d="M284.042 73.0272C284.042 76.6737 283.442 79.3607 282.243 81.112C281.043 82.8633 279.22 83.7269 276.725 83.7269C274.23 83.7269 272.502 82.8153 271.279 81.016C270.055 79.2167 269.456 76.5298 269.456 73.0032C269.456 69.4766 270.055 66.5977 271.255 64.8464C272.454 63.0951 274.278 62.2314 276.749 62.2314C279.22 62.2314 280.971 63.1431 282.195 64.9663C283.418 66.8376 284.042 69.5006 284.042 73.0272ZM273.822 73.0272C273.822 75.5942 274.038 77.4174 274.494 78.521C274.925 79.6246 275.669 80.1763 276.725 80.1763C277.78 80.1763 278.5 79.6246 278.956 78.497C279.412 77.3695 279.652 75.5462 279.652 73.0272C279.652 70.5082 279.412 68.6369 278.956 67.5093C278.5 66.3818 277.756 65.83 276.749 65.83C275.741 65.83 274.973 66.3818 274.518 67.5093C274.062 68.6369 273.822 70.4602 273.822 73.0272Z" fill="white"/>
<path d="M295.677 83.463H291.263V71.3958L291.311 69.4045L291.383 67.2454C290.639 67.9891 290.135 68.4689 289.848 68.6848L287.448 70.6041L285.337 67.9411L292.055 62.5912H295.677V83.463Z" fill="white"/>
<path d="M203.026 116.066L203.386 116.306L202.354 119.041L204.681 117.266L205.041 117.53L204.033 120.264L206.312 118.465L206.672 118.729L203.865 120.864L203.53 120.6L204.537 117.793L202.162 119.617L201.826 119.353L203.026 116.066Z" fill="white"/>
<path d="M207.896 119.473L208.232 119.689L206.457 122.52L206.097 122.304L207.896 119.473Z" fill="white"/>
<path d="M211.59 122.064L210.631 121.512L209.167 124.151L208.807 123.935L210.271 121.32L209.311 120.768L209.479 120.456L211.782 121.728L211.59 122.064Z" fill="white"/>
<path d="M211.519 124.991L214.421 123.431L212.694 122.616L212.838 122.28L215.021 123.335L214.877 123.623L211.974 125.207L213.774 126.046L213.606 126.382L211.375 125.302L211.519 124.991Z" fill="white"/>
<path d="M216.461 123.911L216.844 124.079L215.717 126.862L217.156 127.414L217.012 127.773L215.213 127.054L216.461 123.911Z" fill="white"/>
<path d="M219.603 125.135L221.618 125.782L221.498 126.142L219.867 125.614L219.531 126.598L221.067 127.102L220.947 127.462L219.435 126.958L219.051 128.085L220.779 128.661L220.659 128.997L218.548 128.325L219.603 125.135Z" fill="white"/>
<path d="M223.226 126.238L224.066 126.454C224.689 126.622 225.337 126.862 225.145 127.678C225.025 128.157 224.641 128.373 224.114 128.349L224.665 130.077L224.186 129.957L223.658 128.253L223.154 128.133L222.794 129.597L222.386 129.501L223.226 126.238ZM223.25 127.773L223.586 127.869C224.018 127.965 224.569 128.109 224.713 127.582C224.833 127.102 224.426 126.934 224.066 126.838L223.538 126.694L223.25 127.773Z" fill="white"/>
<path d="M229.32 127.534L231.407 127.822L231.359 128.181L229.655 127.942L229.512 128.997L231.119 129.213L231.071 129.597L229.464 129.357L229.32 130.556L231.095 130.796L231.047 131.18L228.864 130.868L229.32 127.534Z" fill="white"/>
<path d="M233.086 127.989L233.59 128.013L235.365 130.94L235.533 128.133L235.941 128.157L235.749 131.516L235.245 131.492L233.446 128.589L233.278 131.372L232.87 131.348L233.086 127.989Z" fill="white"/>
<path d="M237.74 128.181L239.851 128.157V128.517L238.148 128.565V129.621L239.755 129.597V129.957L238.148 129.981L238.172 131.18L239.995 131.156V131.516L237.788 131.564L237.74 128.181Z" fill="white"/>
<path d="M241.555 128.085L242.418 128.013C243.066 127.965 243.762 127.989 243.834 128.829C243.882 129.309 243.57 129.669 243.066 129.789L244.146 131.252L243.666 131.3L242.634 129.861L242.13 129.909L242.25 131.42L241.842 131.444L241.555 128.085ZM242.058 129.525L242.418 129.477C242.85 129.453 243.426 129.405 243.402 128.829C243.354 128.349 242.922 128.301 242.538 128.349L241.986 128.397L242.058 129.525Z" fill="white"/>
<path d="M248.728 130.364C248.368 130.628 247.96 130.796 247.528 130.868C246.497 131.036 245.633 130.436 245.465 129.405C245.297 128.469 245.921 127.558 246.881 127.39C246.929 127.39 246.953 127.39 247.001 127.366C247.432 127.27 247.888 127.366 248.248 127.606L247.984 127.965C247.696 127.749 247.36 127.678 247.025 127.725C246.257 127.845 245.753 128.589 245.873 129.333C245.993 130.101 246.737 130.604 247.48 130.484C247.768 130.436 248.032 130.316 248.272 130.173L248.104 129.141L247.336 129.261L247.289 128.901L248.44 128.709L248.728 130.364Z" fill="white"/>
<path d="M250.425 126.775L250.026 126.862L250.753 130.166L251.152 130.078L250.425 126.775Z" fill="white"/>
<path d="M253.238 126.07L253.598 125.974L255.901 128.829L255.445 128.949L254.893 128.253L253.262 128.709L253.166 129.597L252.734 129.717L253.238 126.07ZM253.55 126.526L253.334 128.325L254.654 127.942L253.55 126.526Z" fill="white"/>
<path d="M258.516 124.295L258.876 124.151L260.028 126.934L261.467 126.334L261.587 126.694L259.788 127.414L258.516 124.295Z" fill="white"/>
<path d="M263.794 122.328L262.81 122.808L264.13 125.495L263.77 125.686L262.45 122.976L261.443 123.455L261.299 123.143L263.65 121.992L263.794 122.328Z" fill="white"/>
<path d="M264.849 121.344L265.977 120.696C266.793 120.24 267.824 120.552 268.256 121.368C268.688 122.16 268.424 123.143 267.656 123.599L266.529 124.247L264.849 121.344ZM266.721 123.719L267.368 123.335C268.04 122.927 268.352 122.328 267.872 121.512C267.416 120.72 266.697 120.672 266.049 121.056L265.377 121.44L266.721 123.719Z" fill="white"/>
<path d="M269.648 118.345L269.96 118.129L273.054 120.097L272.671 120.36L271.927 119.881L270.535 120.84L270.727 121.728L270.343 121.992L269.648 118.345ZM270.104 118.681L270.463 120.432L271.591 119.641L270.104 118.681Z" fill="white"/>
<path d="M274.614 118.585C274.71 118.705 274.686 118.897 274.566 118.993C274.446 119.089 274.254 119.065 274.158 118.945C274.062 118.825 274.086 118.633 274.206 118.537C274.35 118.441 274.518 118.465 274.614 118.585Z" fill="white"/>
</svg>
