<svg width="311" height="145" viewBox="0 0 311 145" fill="none" xmlns="http://www.w3.org/2000/svg">
<path d="M238.281 143.943C198.6 143.943 166.309 111.652 166.309 71.9716C166.309 32.2912 198.6 0 238.281 0C277.961 0 310.252 32.2912 310.252 71.9716C310.252 111.652 277.961 143.943 238.281 143.943ZM238.281 1.43943C199.392 1.43943 167.749 33.0829 167.749 71.9716C167.749 110.86 199.392 142.504 238.281 142.504C277.169 142.504 308.813 110.86 308.813 71.9716C308.813 33.0829 277.169 1.43943 238.281 1.43943Z" fill="white"/>
<path d="M238.856 24.5183C212.611 24.5183 191.331 45.7979 191.331 72.0435C191.331 98.2891 212.611 119.569 238.856 119.569C265.102 119.569 286.382 98.2891 286.382 72.0435C286.382 45.7979 265.102 24.5183 238.856 24.5183ZM238.856 118.561C213.163 118.561 192.339 97.7374 192.339 72.0435C192.339 46.3497 213.163 25.5259 238.856 25.5259C264.55 25.5259 285.374 46.3497 285.374 72.0435C285.374 97.7374 264.55 118.561 238.856 118.561Z" fill="white"/>
<path d="M260.88 62.1595C260.976 49.8524 250.972 39.9923 238.137 39.8963C225.638 39.8004 215.946 49.7324 215.682 62.2315C215.226 82.4795 240.08 88.885 247.493 77.2256C236.865 84.6626 220.504 76.7218 220.96 62.2075C221.248 52.5393 229.236 45.0303 238.377 45.0303C247.517 45.0303 255.842 52.5393 255.698 62.2555C255.506 74.4667 247.877 83.3911 226.429 87.0617C226.429 87.0617 227.917 93.3472 228.013 94.4508C244.015 93.3952 260.736 82.2636 260.88 62.1595Z" fill="white"/>
<path d="M226.43 87.0375C226.43 87.0375 233.243 90.9719 241.472 91.7636C243.991 92.0035 245.718 94.3786 245.19 96.8496C244.83 98.529 244.542 99.9684 244.566 99.9924C244.566 99.9684 224.582 101.864 226.43 87.0375Z" fill="white"/>
<path d="M231.779 99.1768C235.522 101.456 240.512 102.248 244.398 101.096C244.398 101.096 243.75 105.342 238.089 105.174C233.123 105.031 231.779 99.1768 231.779 99.1768Z" fill="white"/>
<path d="M236.889 77.7772C236.889 77.7772 229.236 76.3857 230.412 66.3097C230.412 66.3097 241.16 66.8135 238.401 77.4173C238.401 77.4173 235.618 71.4916 233.531 71.0358C233.531 71.0358 237.129 75.762 236.889 77.7772Z" fill="white"/>
<path d="M244.806 79.5526C244.806 79.5526 257.617 73.7949 251.02 56.6657C251.02 56.6657 232.403 62.2075 241.975 79.5526C241.975 79.5526 244.206 67.9652 247.685 66.3099C247.685 66.3339 243.486 76.146 244.806 79.5526Z" fill="white"/>
<path d="M197.353 38.7447L194.018 43.3029L185.862 37.3293L189.196 32.7711L190.036 33.3949L187.397 36.9934L190.036 38.9127L192.507 35.53L193.347 36.1538L190.876 39.5364L193.874 41.7436L196.513 38.145L197.353 38.7447Z" fill="white"/>
<path d="M205.198 30.9238L204.214 31.8355L194.378 29.3885L194.33 29.4364C195.074 30.1082 195.721 30.7559 196.273 31.3557L200.184 35.554L199.392 36.2977L192.507 28.8847L193.49 27.973L203.278 30.42L203.326 30.3721C203.231 30.2761 202.943 30.0122 202.463 29.5324C201.983 29.0526 201.647 28.7167 201.455 28.5008L197.497 24.2545L198.312 23.5108L205.198 30.9238Z" fill="white"/>
<path d="M213.019 25.7658L208.244 28.7406L202.895 20.176L207.669 17.2012L208.22 18.0888L204.43 20.4399L206.157 23.1988L209.708 20.9677L210.26 21.8553L206.709 24.0865L208.676 27.2532L212.467 24.9021L213.019 25.7658Z" fill="white"/>
<path d="M215.418 19.96L217.001 23.8705L215.921 24.3023L212.131 14.922L214.698 13.8904C215.849 13.4346 216.785 13.3147 217.505 13.5306C218.224 13.7465 218.776 14.2983 219.136 15.1859C219.64 16.4334 219.352 17.513 218.272 18.4726L222.519 21.6634L221.223 22.1912L217.385 19.2163L215.418 19.96ZM215.058 19.0244L216.545 18.4247C217.313 18.1128 217.817 17.7289 218.057 17.2731C218.296 16.8173 218.296 16.2895 218.033 15.6897C217.793 15.066 217.409 14.7061 216.953 14.5622C216.473 14.4422 215.825 14.5382 215.034 14.8741L213.618 15.4498L215.058 19.0244Z" fill="white"/>
<path d="M228.373 14.9222L231.755 14.2744L232.667 19.0965C232.163 19.3604 231.659 19.6003 231.131 19.7922C230.604 19.9842 229.98 20.1521 229.26 20.272C227.749 20.5599 226.501 20.344 225.494 19.6003C224.486 18.8566 223.838 17.6811 223.526 16.0737C223.335 15.0421 223.358 14.1065 223.622 13.2428C223.886 12.3792 224.366 11.6834 225.086 11.1317C225.782 10.5799 226.669 10.196 227.701 10.0041C228.756 9.81217 229.788 9.81217 230.772 10.0281L230.508 11.1317C229.548 10.9157 228.636 10.8917 227.821 11.0597C226.621 11.2996 225.734 11.8274 225.182 12.667C224.63 13.5067 224.486 14.5863 224.726 15.8578C224.99 17.2013 225.494 18.1609 226.285 18.7127C227.077 19.2884 228.109 19.4564 229.356 19.2165C230.052 19.0965 230.7 18.8806 231.323 18.5927L230.748 15.5459L228.516 15.9777L228.373 14.9222Z" fill="white"/>
<path d="M236.217 19.3604L235.857 9.26037L237.033 9.21239L237.393 19.3124L236.217 19.3604Z" fill="white"/>
<path d="M247.541 19.912L246.629 16.5773L242.599 16.1695L241.04 19.2403L239.864 19.1203L244.878 9.42813L245.862 9.52409L248.765 20.0319L247.541 19.912ZM246.366 15.4977L245.526 12.259C245.406 11.8512 245.31 11.3474 245.214 10.7716C245.07 11.2034 244.878 11.6592 244.638 12.187L243.127 15.1859L246.366 15.4977Z" fill="white"/>
<path d="M259.057 23.2948L258.025 22.887L260.64 16.1696C260.856 15.6179 261.072 15.0901 261.312 14.6103C261.192 14.6582 261.048 14.7302 260.904 14.7782C260.76 14.8262 260.088 15.0421 258.889 15.4259L258.601 14.4663L261.839 13.5067L262.751 13.8666L259.057 23.2948Z" fill="white"/>
<path d="M271.819 24.3504C270.908 25.8378 269.996 26.8214 269.084 27.2772C268.173 27.733 267.213 27.6611 266.254 27.0853C265.318 26.5335 264.838 25.7178 264.814 24.6623C264.79 23.6067 265.198 22.3592 266.086 20.8957C266.997 19.3843 267.909 18.4007 268.821 17.9689C269.732 17.5131 270.668 17.5851 271.627 18.1608C272.563 18.7366 273.043 19.5283 273.091 20.5839C273.115 21.6634 272.683 22.9109 271.819 24.3504ZM267.093 21.4955C266.326 22.767 265.918 23.7506 265.87 24.5183C265.822 25.262 266.11 25.8378 266.757 26.2216C267.405 26.6055 268.053 26.6055 268.701 26.1976C269.348 25.7898 270.044 24.9741 270.788 23.7266C271.532 22.4791 271.939 21.4955 271.987 20.7278C272.035 19.9841 271.747 19.4083 271.076 19.0005C270.428 18.6166 269.78 18.6166 269.132 19.0005C268.557 19.4083 267.861 20.248 267.093 21.4955Z" fill="white"/>
<path d="M279.52 30.6359C278.369 31.9553 277.313 32.771 276.33 33.0589C275.346 33.3468 274.434 33.1309 273.571 32.3872C272.755 31.6675 272.395 30.8038 272.563 29.7722C272.707 28.7406 273.331 27.5651 274.458 26.2696C275.61 24.9261 276.665 24.1344 277.649 23.8466C278.633 23.5587 279.544 23.7746 280.384 24.5183C281.224 25.238 281.56 26.1256 281.416 27.1572C281.248 28.1888 280.624 29.3404 279.52 30.6359ZM275.346 27.0133C274.386 28.1169 273.811 29.0525 273.643 29.7962C273.475 30.5399 273.667 31.1397 274.242 31.6435C274.818 32.1473 275.466 32.2432 276.162 31.9553C276.857 31.6675 277.697 30.9717 278.633 29.8682C279.592 28.7646 280.144 27.853 280.336 27.1093C280.528 26.3656 280.312 25.7658 279.736 25.262C279.16 24.7582 278.537 24.6622 277.841 24.9501C277.145 25.214 276.306 25.9097 275.346 27.0133Z" fill="white"/>
<path d="M291.132 36.5375L279.712 38.2888L279.089 37.4971L290.508 35.7458L291.132 36.5375ZM286.118 34.9781C285.278 35.6258 284.559 35.9617 283.911 36.0097C283.263 36.0577 282.735 35.8178 282.327 35.266C281.944 34.7622 281.848 34.1864 282.064 33.5626C282.279 32.9389 282.783 32.3151 283.599 31.6914C284.415 31.0436 285.158 30.7078 285.782 30.6598C286.406 30.6118 286.934 30.8517 287.341 31.3795C287.749 31.9073 287.845 32.4831 287.629 33.1068C287.413 33.7306 286.91 34.3543 286.118 34.9781ZM286.646 42.2712C285.83 42.9189 285.086 43.2548 284.439 43.3028C283.791 43.3508 283.263 43.1109 282.855 42.5591C282.447 42.0313 282.351 41.4795 282.591 40.8558C282.807 40.232 283.311 39.6083 284.127 38.9845C284.942 38.3368 285.686 38.0009 286.31 37.9529C286.934 37.9049 287.461 38.1448 287.869 38.6726C288.277 39.2004 288.373 39.7522 288.157 40.376C287.965 41.0237 287.437 41.6474 286.646 42.2712ZM284.175 32.4831C283.551 32.9629 283.143 33.3947 282.927 33.7546C282.711 34.1384 282.735 34.4743 282.975 34.7622C283.431 35.3619 284.295 35.17 285.518 34.2104C286.742 33.2508 287.126 32.4831 286.67 31.8833C286.43 31.5714 286.118 31.4755 285.71 31.5714C285.302 31.6914 284.798 32.0033 284.175 32.4831ZM284.702 39.7522C284.079 40.232 283.671 40.6638 283.455 41.0477C283.263 41.4315 283.263 41.7674 283.503 42.0553C283.743 42.3672 284.079 42.4631 284.487 42.3912C284.894 42.2952 285.422 42.0073 286.07 41.5275C286.694 41.0477 287.102 40.6159 287.293 40.232C287.485 39.8482 287.461 39.5123 287.221 39.2004C286.982 38.8885 286.67 38.7926 286.262 38.8885C285.83 38.9845 285.326 39.2724 284.702 39.7522Z" fill="white"/>
<path d="M200.735 118.561L198.408 121.656L197.545 121.008L203.135 113.571L205.174 115.107C206.085 115.802 206.637 116.474 206.805 117.146C206.973 117.818 206.805 118.513 206.277 119.209C205.534 120.193 204.55 120.48 203.278 120.073L202.799 124.943L201.767 124.175L202.295 119.737L200.735 118.561ZM201.287 117.818L202.463 118.705C203.063 119.161 203.614 119.377 204.07 119.353C204.526 119.329 204.958 119.065 205.318 118.585C205.678 118.081 205.797 117.626 205.678 117.194C205.558 116.762 205.174 116.306 204.526 115.826L203.398 114.987L201.287 117.818Z" fill="white"/>
<path d="M210.524 129.309L205.965 126.838L210.38 118.633L214.938 121.104L214.482 121.944L210.859 120.001L209.444 122.64L212.851 124.463L212.395 125.303L208.988 123.479L207.357 126.502L210.979 128.445L210.524 129.309Z" fill="white"/>
<path d="M221.343 133.435L220.168 133.027L217.865 123.983L217.817 123.959C217.577 124.847 217.337 125.662 217.097 126.382L215.394 131.396L214.458 131.084L217.457 122.28L218.609 122.663L220.912 131.66L220.96 131.684C220.984 131.564 221.08 131.228 221.271 130.628C221.439 130.029 221.583 129.597 221.679 129.357L223.407 124.295L224.366 124.631L221.343 133.435Z" fill="white"/>
<path d="M234.826 131.084C234.61 132.572 234.082 133.675 233.219 134.419C232.355 135.163 231.251 135.426 229.932 135.258C228.564 135.067 227.581 134.515 226.957 133.579C226.333 132.644 226.141 131.42 226.333 129.909C226.549 128.397 227.077 127.294 227.941 126.574C228.804 125.854 229.908 125.59 231.275 125.782C232.595 125.974 233.578 126.526 234.202 127.486C234.826 128.397 235.042 129.621 234.826 131.084ZM227.485 130.077C227.317 131.324 227.437 132.308 227.893 133.027C228.325 133.747 229.068 134.179 230.076 134.323C231.107 134.467 231.923 134.251 232.523 133.675C233.123 133.099 233.53 132.188 233.698 130.94C233.866 129.693 233.746 128.733 233.315 128.013C232.883 127.294 232.163 126.862 231.155 126.742C230.124 126.598 229.308 126.814 228.684 127.39C228.061 127.941 227.653 128.829 227.485 130.077Z" fill="white"/>
<path d="M243.582 126.334L244.758 126.31L241.687 135.714L240.608 135.738L236.985 126.526L238.137 126.502L240.464 132.452C240.728 133.147 240.944 133.795 241.111 134.443C241.255 133.747 241.423 133.051 241.639 132.38L243.582 126.334Z" fill="white"/>
<path d="M254.234 134.083L252.555 131.396L248.885 132.092L248.309 135.211L247.229 135.403L249.125 125.543L250.012 125.375L255.338 133.891L254.234 134.083ZM248.621 124.751C248.765 124.463 248.933 124.103 249.101 123.695C249.268 123.287 249.388 122.928 249.46 122.64L250.732 122.4L250.756 122.52C250.612 122.832 250.42 123.215 250.132 123.671C249.844 124.127 249.58 124.511 249.364 124.775L248.669 124.895L248.621 124.751ZM252.027 130.485L250.42 127.846C250.204 127.51 249.988 127.102 249.748 126.598C249.724 127.006 249.676 127.486 249.604 127.99L249.053 131.036L252.027 130.485Z" fill="white"/>
<path d="M260.544 122.28L261.647 121.896L261.623 131.78L260.616 132.14L254.33 124.511L255.41 124.127L259.44 129.069C259.896 129.645 260.304 130.197 260.664 130.772C260.568 130.077 260.544 129.357 260.544 128.637V122.28Z" fill="white"/>
<path d="M272.443 126.718L267.861 129.165L263.471 120.96L268.053 118.513L268.509 119.353L264.886 121.296L266.302 123.935L269.708 122.112L270.164 122.952L266.757 124.775L268.365 127.798L271.987 125.854L272.443 126.718Z" fill="white"/>
<path d="M275.97 124.463L270.5 116.93L271.363 116.282L276.257 123.023L279.568 120.6L280.144 121.392L275.97 124.463Z" fill="white"/>
<path d="M72.1103 144.603C32.43 144.603 0.138702 112.312 0.138702 72.6318C0.138702 32.9515 32.43 0.660248 72.1103 0.660248C111.791 0.660248 144.082 32.9515 144.082 72.6318C144.082 112.312 111.791 144.603 72.1103 144.603ZM72.1103 2.09968C33.2216 2.09968 1.57813 33.7432 1.57813 72.6318C1.57813 111.52 33.2216 143.164 72.1103 143.164C110.999 143.164 142.642 111.52 142.642 72.6318C142.642 33.7432 110.999 2.09968 72.1103 2.09968Z" fill="white"/>
<path d="M72.6861 9.08092C37.612 9.08092 9.06328 37.6296 9.06328 72.7038C9.06328 107.778 37.612 136.327 72.6861 136.327C107.76 136.327 136.309 107.778 136.309 72.7038C136.309 37.6296 107.76 9.08092 72.6861 9.08092ZM72.6861 135.487C38.0438 135.487 9.87896 107.322 9.87896 72.7038C9.87896 38.0855 38.0438 9.8966 72.6861 9.8966C107.328 9.8966 135.493 38.0615 135.493 72.7038C135.493 107.322 107.304 135.487 72.6861 135.487Z" fill="white"/>
<path d="M43.3936 54.7109C43.7055 50.2967 47.9758 45.2107 51.8383 44.2991C52.51 46.5542 53.7335 48.5694 55.3409 50.2967C52.7019 50.6086 50.4468 52.6957 50.111 55.3587C49.5832 58.5494 51.9342 61.7642 55.149 62.148C59.7791 62.7957 60.4749 58.6214 66.1606 57.8057C67.9839 57.4699 69.8792 57.6138 71.6784 58.0936C71.8544 58.1416 71.9183 58.2455 71.8704 58.4055C71.0787 60.5406 71.0067 62.8197 71.2226 65.0509C68.5837 63.7794 65.8487 64.2592 63.7616 66.2744C61.9863 67.6658 59.8511 68.5055 57.62 68.8174C49.5352 69.9689 42.362 62.7718 43.3936 54.7109Z" fill="white"/>
<path d="M66.8565 27.6017C70.2872 27.9375 73.5019 29.7128 75.6131 32.4237C75.733 32.5677 75.733 32.5917 75.5891 32.6876C73.7418 34.0071 72.1584 35.7344 71.1268 37.7496C69.8313 35.4705 67.7682 34.0551 65.0812 34.295C59.4195 34.7268 57.6441 42.5477 62.5862 45.3786C66.1848 47.5378 68.6318 51.5682 68.7038 55.7905C68.7038 55.9025 68.6478 55.9585 68.5359 55.9585C66.2328 55.9105 64.0016 56.4862 61.9385 57.4219C62.3223 55.0468 61.3147 52.3839 59.1795 51.1603C54.3814 48.3774 51.8864 42.3318 53.3978 36.9819C54.8133 31.2482 60.571 27.1458 66.4487 27.5537C66.5446 27.6256 66.7126 27.5537 66.8565 27.6017Z" fill="white"/>
<path d="M81.3706 58.6214C79.5953 60.3727 78.9235 63.0356 79.9071 65.3627C83.0019 72.224 78.9235 80.6447 71.6784 82.5879C64.0254 84.939 55.6767 78.7974 55.5568 70.8086C55.5568 70.6806 55.6207 70.6086 55.7487 70.5926C58.0278 70.6406 60.3309 70.1368 62.3701 69.1292C61.9622 71.5762 62.9698 74.2152 65.201 75.4627C69.2793 78.0057 74.8212 74.5031 74.1734 69.729C74.0295 68.0736 73.0219 66.6342 72.8779 64.9789C72.3741 61.8361 73.1418 58.5494 74.9171 55.9104C74.9891 55.8145 75.0371 55.8145 75.109 55.8864C76.9803 57.2539 79.1155 58.2375 81.3706 58.6214Z" fill="white"/>
<path d="M98.0919 62.5318C98.6197 70.9764 90.151 77.6938 82.0422 75.2947C81.7063 75.2227 81.7543 75.2227 81.8503 74.9349C82.57 72.7997 82.7379 70.5446 82.4501 68.3135C87.656 71.0004 93.3178 65.7705 90.7508 60.3966C90.0551 58.9572 88.7356 57.8536 87.2002 57.3498C86.7683 57.1819 86.3125 57.1099 85.8567 57.1099C81.9702 57.4698 77.8919 56.4861 75.061 53.6793C74.869 53.4633 73.3576 52.0959 73.7895 52.0239C74.6531 51.4241 75.4688 50.7524 76.1645 49.9607C76.9562 49.0731 77.6999 48.1135 78.2277 47.0339C78.2517 46.9619 78.3237 46.8899 78.3957 47.0339C79.0914 48.4733 80.1949 49.4569 81.6824 50.0327C83.2657 50.7044 84.9691 50.1766 86.6244 50.3926C92.814 50.9443 97.9959 56.3182 98.0919 62.5318Z" fill="white"/>
<path d="M87.8719 48.8812C90.247 46.698 90.4389 42.6916 88.1598 40.3405C85.257 37.0538 79.3313 38.3733 78.1558 42.6196C77.2201 46.9619 74.1254 50.8484 69.8071 52.2398C69.1593 49.9607 67.8878 47.9935 66.3044 46.2182C67.7679 46.0503 69.0873 45.2826 70.0949 44.227C70.8387 43.4113 71.2225 42.4517 71.4864 41.4201C71.8942 39.7648 72.6379 38.2534 73.6455 36.8619C76.0686 33.8391 79.3073 31.9439 83.2178 31.7759C91.6624 31.2242 98.4038 39.6688 96.0527 47.7776C95.9327 48.4014 94.6852 51.7121 94.1095 51.6161C92.2862 50.2007 90.103 49.385 87.8719 48.8812Z" fill="white"/>
<path d="M72.8301 100.101V93.7436C72.8301 93.4797 72.8062 93.5036 73.07 93.5036H82.1625C82.4024 93.5036 82.4024 93.4797 82.4024 93.7196V95.255C82.4024 95.3669 82.3464 95.4229 82.2344 95.4229H75.2532C74.9893 95.4229 75.0133 95.3989 75.0133 95.6628V100.365C75.0133 100.581 75.0133 100.557 75.2292 100.557H81.4187C81.6107 100.557 81.7066 100.653 81.7066 100.845V102.284C81.7066 102.412 81.6427 102.476 81.5147 102.476H75.2772C74.9893 102.476 75.0133 102.452 75.0133 102.74V106.171C75.0133 106.531 75.0613 106.914 75.1812 107.25C75.4931 108.138 76.1408 108.618 77.0765 108.618H82.2584C82.3544 108.618 82.3784 108.642 82.3784 108.738V110.345C82.3784 110.473 82.3064 110.537 82.1625 110.537H80.4831C79.3076 110.537 78.1321 110.561 76.9565 110.513C76.4287 110.489 75.9249 110.417 75.4451 110.249C74.1736 109.841 73.3819 109.002 73.0221 107.73C72.8781 107.202 72.8062 106.674 72.8062 106.123C72.8301 104.107 72.8301 102.116 72.8301 100.101Z" fill="white"/>
<path d="M83.9856 101.78C83.9856 101.325 83.9616 100.701 84.0096 100.053C84.1055 98.9015 84.3934 97.7979 84.9932 96.7903C85.377 96.1186 85.8808 95.5668 86.4806 95.087C87.3683 94.3673 88.3999 93.9355 89.4794 93.6716C90.655 93.3837 91.8785 93.3117 93.078 93.4557C93.8937 93.5516 94.7094 93.6956 95.4771 93.9595C95.621 94.0074 95.741 94.0554 95.8849 94.1274C95.9809 94.1754 96.0528 94.2713 96.0528 94.3913V97.8219C96.0528 97.9499 95.9889 98.0218 95.8609 98.0378C95.4051 98.0378 94.9253 98.0618 94.4695 98.0618C94.3735 98.0618 94.2775 98.0618 94.1816 98.0378C94.1096 98.0139 94.0616 97.9659 94.0616 97.8939V95.7587C94.0616 95.6468 94.0056 95.5668 93.8937 95.5188C93.6298 95.4469 93.3659 95.3989 93.102 95.3749C92.2863 95.3029 91.4946 95.2789 90.679 95.3749C88.3759 95.6388 86.7925 97.1022 86.3367 99.2374C86.2167 99.7892 86.1687 100.365 86.1447 100.941C86.1208 101.828 86.1208 102.716 86.1687 103.604C86.1927 104.227 86.2887 104.827 86.4566 105.427C86.6725 106.195 87.0564 106.866 87.6082 107.466C88.2799 108.186 89.1196 108.522 90.0552 108.738C90.487 108.834 90.9189 108.858 91.3507 108.858C91.9265 108.858 92.5022 108.882 93.078 108.834C93.7977 108.786 94.4934 108.618 95.1652 108.402C95.3811 108.33 95.597 108.234 95.8129 108.186C96.0048 108.162 96.0528 108.186 96.0528 108.378V109.745C96.0528 109.889 96.0048 109.961 95.8849 110.009C95.8129 110.033 95.7649 110.081 95.693 110.105C94.8533 110.393 94.0136 110.657 93.126 110.729C92.5262 110.777 91.9025 110.777 91.2787 110.777C90.3191 110.753 89.3835 110.633 88.4718 110.345C87.1523 109.913 86.0488 109.169 85.2811 108.018C84.7773 107.25 84.4174 106.411 84.2255 105.523C84.0576 104.779 84.0096 104.035 83.9856 103.292C83.9856 102.788 83.9856 102.38 83.9856 101.78Z" fill="white"/>
<path d="M81.1308 63.0116C80.9389 57.9256 89.5515 56.7981 89.7434 63.1556C89.6955 68.6734 81.1548 68.7454 81.1308 63.0116Z" fill="white"/>
<path d="M61.3145 40.2926C61.2666 34.8228 69.8312 34.343 69.9511 40.3406C69.9991 45.5225 61.6264 46.2662 61.3145 40.2926Z" fill="white"/>
<path d="M56.0124 60.5646C50.1108 60.3487 50.6386 51.928 55.9884 51.928C61.2664 51.7841 62.106 60.3487 56.0124 60.5646Z" fill="white"/>
<path d="M83.6977 48.7612C81.4186 48.8092 79.4514 46.6981 79.4993 44.4429C79.4753 40.8204 83.7697 38.8771 86.4326 41.0123C89.7433 43.4833 87.848 48.9532 83.6977 48.7612Z" fill="white"/>
<path d="M63.9537 70.5686C63.8098 68.5294 65.2012 66.8021 67.0485 66.2024C72.6143 64.571 74.9654 73.2316 69.1117 74.5751C66.8326 75.1988 63.9297 73.1356 63.9537 70.5686Z" fill="white"/>
<path d="M47.688 102.02V110.297C47.688 110.561 47.736 110.537 47.4481 110.537H45.7448C45.5049 110.537 45.5289 110.561 45.5289 110.297V93.7674C45.5289 93.4555 45.4809 93.5035 45.7928 93.5035H47.4961C47.712 93.5035 47.688 93.4795 47.688 93.7194V102.02Z" fill="white"/>
<path d="M64.0014 116.079V120.901C64.0014 121.069 64.0254 121.213 64.0254 121.381C64.0254 121.597 63.9775 121.645 63.7615 121.645C63.5936 121.645 63.4257 121.669 63.2337 121.645C62.9938 121.645 62.9459 121.621 62.9459 121.357V114.16C62.9459 113.92 62.9219 113.944 63.1618 113.92C63.6896 113.92 63.6176 113.896 63.9295 114.304C65.177 115.983 66.3525 117.686 67.624 119.342C67.672 119.39 67.696 119.438 67.768 119.485C67.7919 119.414 67.7919 119.342 67.7919 119.27V114.088C67.7919 113.992 67.8399 113.936 67.9359 113.92H68.6316C68.7276 113.92 68.7756 113.944 68.7516 114.04V121.381C68.7516 121.645 68.7756 121.597 68.5117 121.621C68.1998 121.669 68.0079 121.525 67.8399 121.285C66.6884 119.677 65.5128 118.07 64.3373 116.463C64.2413 116.343 64.1454 116.223 64.0014 116.079Z" fill="white"/>
<path d="M47.544 121.668H46.2965C45.8647 121.62 45.4328 121.548 45.025 121.452C44.953 121.428 44.905 121.428 44.8571 121.404C44.7371 121.356 44.6651 121.284 44.6891 121.165V120.685C44.6891 120.517 44.7371 120.469 44.905 120.517C45.2169 120.613 45.5288 120.685 45.8647 120.733C46.4404 120.829 46.9922 120.877 47.568 120.757C47.7599 120.709 47.9518 120.661 48.1198 120.541C48.4077 120.373 48.5516 120.109 48.5756 119.773C48.5996 119.557 48.5996 119.365 48.5516 119.149C48.4796 118.789 48.2877 118.55 47.9518 118.406C47.64 118.262 47.2801 118.214 46.9442 118.118C46.6324 118.046 46.3205 117.95 46.0326 117.83C45.8407 117.734 45.6487 117.638 45.4808 117.518C45.049 117.182 44.8331 116.726 44.7851 116.199C44.7611 115.983 44.7611 115.791 44.8091 115.575C44.977 114.687 45.5288 114.183 46.3685 113.967C46.8962 113.823 47.448 113.823 47.9998 113.895C48.3837 113.943 48.7435 114.015 49.1034 114.135C49.2233 114.159 49.2713 114.207 49.2713 114.327V114.879C49.2713 115.023 49.2473 115.023 49.1274 114.999C48.8635 114.951 48.6236 114.879 48.3597 114.831C47.8079 114.735 47.2561 114.687 46.7043 114.807C46.5604 114.831 46.4164 114.879 46.2965 114.951C45.8407 115.215 45.6967 115.695 45.7687 116.175C45.8167 116.51 46.0086 116.726 46.2725 116.894C46.5124 117.038 46.7523 117.11 47.0162 117.182C47.3761 117.278 47.7119 117.35 48.0718 117.47C48.2157 117.518 48.3357 117.566 48.4796 117.638C49.1274 117.95 49.4632 118.478 49.5592 119.197C49.6072 119.509 49.6072 119.797 49.5352 120.109C49.3433 120.877 48.8155 121.332 48.0958 121.572C47.9039 121.62 47.7119 121.644 47.544 121.668Z" fill="white"/>
<path d="M53.6136 118.214V121.404C53.6136 121.62 53.6136 121.644 53.3737 121.644H52.8219C52.654 121.644 52.63 121.596 52.63 121.452V114.999C52.63 114.871 52.566 114.807 52.4381 114.807H50.3269C50.2549 114.807 50.2309 114.783 50.2309 114.711V114.039C50.2309 113.967 50.2549 113.943 50.3269 113.943H55.8447C55.9727 113.943 56.0366 114.007 56.0366 114.135V114.687C56.0366 114.807 55.9886 114.831 55.8927 114.831H53.8295C53.7016 114.831 53.6376 114.895 53.6376 115.023V117.59C53.6136 117.782 53.6136 117.998 53.6136 118.214Z" fill="white"/>
<path d="M53.4938 103.1H50.447C50.3511 103.1 50.3031 103.076 50.3031 102.98V101.445C50.3031 101.349 50.3271 101.301 50.4231 101.325H56.3967C56.5886 101.325 56.6846 101.421 56.6846 101.612V102.908C56.6846 103.124 56.7086 103.1 56.4687 103.1H53.4938Z" fill="white"/>
<path d="M70.9588 110.393C70.9349 110.249 70.9109 110.129 70.8629 109.985C70.7189 109.577 70.527 109.169 70.3351 108.785C69.6634 107.322 68.8957 105.931 67.8641 104.683C67.6242 104.395 67.3843 104.083 67.0964 103.843C67.0244 103.795 66.9764 103.723 66.9284 103.675C66.8325 103.58 66.8325 103.556 66.9764 103.508C67.2643 103.364 67.5522 103.22 67.8401 103.052C68.5838 102.572 69.1596 101.924 69.4954 101.109C69.7113 100.557 69.8313 100.005 69.9033 99.4052C69.9992 98.4216 69.9273 97.438 69.6394 96.5023C69.2555 95.2788 68.5118 94.3912 67.2883 93.9593C66.5446 93.6954 65.8009 93.5995 65.0092 93.5755H59.4674C59.3554 93.5755 59.2994 93.6315 59.2994 93.7434V110.369C59.2994 110.609 59.2755 110.609 59.5154 110.609H61.2427C61.5066 110.609 61.4586 110.609 61.4586 110.369V104.347C61.4586 104.275 61.4826 104.227 61.5785 104.227H64.5294C64.7213 104.227 64.8652 104.275 65.0092 104.419C65.2491 104.635 65.441 104.875 65.6569 105.115C66.5446 106.171 67.2643 107.346 67.912 108.546C68.2479 109.169 68.5598 109.817 68.7277 110.489C68.7517 110.561 68.7757 110.585 68.8477 110.585H70.8389C70.9588 110.537 70.9588 110.513 70.9588 110.393ZM65.2011 102.212C64.9372 102.26 64.6493 102.284 64.3615 102.284H61.6025C61.4346 102.284 61.4106 102.284 61.4106 102.092V95.6387C61.4106 95.4467 61.3866 95.4468 61.6025 95.4468H64.9612C65.3211 95.4468 65.6569 95.4947 65.9928 95.5667C66.7125 95.7586 67.2163 96.2144 67.4562 96.9102C67.6002 97.318 67.6481 97.7258 67.6961 98.1337C67.7441 98.8294 67.7201 99.5251 67.5042 100.197C67.1683 101.348 66.3767 102.02 65.2011 102.212Z" fill="white"/>
<path d="M76.1648 116.751C76.1648 116.535 76.1408 116.319 76.0688 116.103C75.8529 115.143 75.3011 114.471 74.3415 114.136C73.9337 113.992 73.5018 113.92 73.046 113.92H70.575C70.503 113.92 70.455 113.944 70.455 114.04V121.381C70.455 121.541 70.535 121.621 70.6949 121.621C71.1987 121.621 71.6785 121.645 72.1823 121.645C72.7581 121.645 73.3339 121.621 73.9097 121.501C75.0132 121.261 75.7329 120.589 76.0208 119.485C76.1168 119.15 76.1648 118.79 76.1648 118.43C76.1888 117.878 76.1648 117.326 76.1648 116.751ZM75.1572 118.694C75.1572 118.958 75.1092 119.222 75.0132 119.461C74.7493 120.229 74.1496 120.685 73.3339 120.709C72.7821 120.733 72.2063 120.709 71.6546 120.709C71.5426 120.709 71.4866 120.653 71.4866 120.541V114.927C71.4866 114.831 71.5106 114.807 71.6066 114.807C72.0864 114.807 72.5422 114.783 73.022 114.807C73.2139 114.831 73.4299 114.831 73.6218 114.879C74.4614 115.071 74.9892 115.623 75.1332 116.487C75.1812 116.727 75.1812 116.966 75.1812 117.206C75.1812 117.686 75.1812 118.19 75.1572 118.694Z" fill="white"/>
<path d="M96.4366 116.751C96.4366 116.535 96.3887 116.319 96.3407 116.079C96.1248 115.119 95.573 114.471 94.6134 114.136C94.2055 113.992 93.7977 113.92 93.3899 113.92H90.8948C90.7989 113.92 90.7269 113.944 90.7509 114.064V121.405C90.7509 121.597 90.7509 121.621 90.9668 121.621C91.4226 121.621 91.8784 121.645 92.3343 121.645C92.934 121.645 93.5338 121.621 94.1336 121.501C95.2371 121.309 95.9089 120.637 96.2447 119.605C96.3407 119.294 96.3887 118.958 96.4127 118.622C96.4606 117.998 96.4366 117.374 96.4366 116.751ZM95.429 118.598C95.4051 118.934 95.3571 119.246 95.2371 119.557C95.0212 120.181 94.5414 120.517 93.9176 120.661C93.7737 120.685 93.6298 120.709 93.4858 120.709H91.9024C91.7905 120.709 91.7345 120.653 91.7345 120.541V114.903C91.7345 114.831 91.7585 114.783 91.8545 114.783C92.5502 114.783 93.2459 114.735 93.9416 114.879C94.2535 114.951 94.5414 115.071 94.7813 115.263C95.1172 115.527 95.2851 115.887 95.3811 116.319C95.4051 116.439 95.429 116.583 95.429 116.703C95.429 117.35 95.477 117.974 95.429 118.598Z" fill="white"/>
<path d="M89.5513 121.452C89.5274 121.332 89.4554 121.237 89.4314 121.117C89.0475 120.181 88.5437 119.341 87.872 118.598C87.824 118.55 87.8 118.502 87.776 118.43C87.8 118.406 87.824 118.406 87.848 118.382C88.4478 118.118 88.8556 117.662 88.9996 117.014C89.1435 116.462 89.1195 115.911 88.9996 115.359C88.8316 114.639 88.3998 114.207 87.7041 114.015C87.4642 113.943 87.2243 113.919 86.9844 113.919H84.4893C84.2494 113.919 84.2734 113.895 84.2734 114.135V121.38C84.2734 121.572 84.2974 121.62 84.4893 121.62H84.9931C85.1691 121.62 85.257 121.524 85.257 121.332V118.909C85.257 118.797 85.313 118.742 85.425 118.742H86.5765C86.6965 118.742 86.8164 118.789 86.8884 118.861C87.0084 118.957 87.1043 119.077 87.2003 119.197C87.7041 119.893 88.1599 120.613 88.4718 121.428C88.5198 121.548 88.5917 121.62 88.7357 121.62H89.4314C89.5513 121.62 89.5753 121.572 89.5513 121.452ZM86.8884 117.83C86.3846 117.854 85.8808 117.83 85.377 117.854C85.257 117.854 85.257 117.782 85.257 117.71V114.975C85.257 114.903 85.257 114.831 85.377 114.831C85.9528 114.831 86.5045 114.783 87.0803 114.855C87.2003 114.879 87.3442 114.903 87.4642 114.951C87.7281 115.047 87.896 115.263 87.968 115.527C88.1119 116.031 88.1359 116.534 87.968 117.038C87.8 117.518 87.4162 117.806 86.8884 117.83Z" fill="white"/>
<path d="M61.8183 121.093C61.5304 119.989 61.1945 118.861 60.8586 117.758C60.4748 116.486 59.971 115.239 59.4192 114.039C59.3712 113.943 59.3232 113.943 59.2513 113.943H58.1957C58.0757 113.943 58.0278 113.991 57.9798 114.087C57.7399 114.663 57.476 115.239 57.2601 115.815C56.6123 117.518 56.0605 119.245 55.6287 120.997C55.5807 121.189 55.5327 121.404 55.5327 121.62H56.3724C56.4924 121.62 56.5403 121.548 56.5643 121.452C56.6603 120.925 56.8042 120.421 56.9482 119.917C56.9802 119.805 57.0521 119.749 57.1641 119.749H60.3069C60.4348 119.749 60.5068 119.813 60.5228 119.941C60.6427 120.445 60.7627 120.949 60.8826 121.428C60.9306 121.572 60.9546 121.62 61.0986 121.62H61.8183C61.8902 121.62 61.8902 121.596 61.8902 121.524C61.8902 121.38 61.8662 121.237 61.8183 121.093ZM60.019 118.838H57.38C57.2841 118.838 57.2601 118.79 57.2841 118.718C57.308 118.574 57.356 118.43 57.404 118.286C57.7399 117.23 58.0757 116.175 58.5316 115.167C58.5795 115.047 58.6275 114.927 58.7235 114.807C58.8434 114.903 58.8914 115.047 58.9394 115.191C59.2513 115.887 59.5152 116.582 59.7551 117.278C59.923 117.758 60.0909 118.214 60.1869 118.718V118.79C60.1149 118.861 60.067 118.838 60.019 118.838Z" fill="white"/>
<path d="M83.1942 121.452C83.1702 121.333 83.1462 121.237 83.1222 121.141C82.6904 119.341 82.1386 117.59 81.4909 115.863C81.275 115.263 81.035 114.663 80.7472 114.087C80.6992 113.967 80.6272 113.943 80.5073 113.943H79.4996C79.3717 113.943 79.2917 113.999 79.2597 114.111C78.9719 114.879 78.684 115.671 78.3961 116.438C78.1322 117.158 77.8443 117.878 77.6044 118.622C77.3405 119.461 77.1006 120.325 76.8607 121.189C76.8367 121.285 76.8127 121.357 76.8127 121.452C76.8127 121.596 76.8367 121.644 76.9806 121.644H77.3645C77.6524 121.644 77.8283 121.5 77.8923 121.213C77.9643 120.781 78.0842 120.373 78.2042 119.965C78.2521 119.773 78.2761 119.773 78.4681 119.773H81.6348C81.7308 119.773 81.7787 119.797 81.8027 119.893C81.8267 120.061 81.8747 120.205 81.9227 120.349C82.0187 120.733 82.1146 121.117 82.2106 121.5C82.2346 121.572 82.2346 121.644 82.3305 121.62H83.0503C83.1942 121.62 83.2182 121.596 83.1942 121.452ZM78.54 118.838C78.8759 117.446 79.3797 116.127 79.9555 114.807C80.0754 114.927 80.1234 115.047 80.1714 115.143C80.4113 115.623 80.6032 116.151 80.7712 116.654C81.0111 117.35 81.2749 118.07 81.4429 118.814C80.4833 118.837 79.5236 118.838 78.54 118.838Z" fill="white"/>
</svg>
