<svg width="116" height="26" viewBox="0 0 116 26" fill="none" xmlns="http://www.w3.org/2000/svg">
<path opacity="0.9" d="M39.936 17.7993L44.0127 4.64844H47.438L41.6655 21H39.3857L39.936 17.7993ZM36.1738 4.64844L40.228 17.7993L40.812 21H38.5098L32.7598 4.64844H36.1738ZM62.2061 12.4087V13.251C62.2061 14.4863 62.0413 15.5981 61.7119 16.5864C61.3825 17.5672 60.9146 18.402 60.3081 19.0908C59.7017 19.7796 58.9792 20.3075 58.1406 20.6743C57.3021 21.0412 56.37 21.2246 55.3442 21.2246C54.3335 21.2246 53.4051 21.0412 52.5591 20.6743C51.7205 20.3075 50.9943 19.7796 50.3804 19.0908C49.7664 18.402 49.291 17.5672 48.9541 16.5864C48.6172 15.5981 48.4487 14.4863 48.4487 13.251V12.4087C48.4487 11.1659 48.6172 10.054 48.9541 9.07324C49.291 8.09245 49.7627 7.25765 50.3691 6.56885C50.9756 5.87256 51.6981 5.34098 52.5366 4.97412C53.3826 4.60726 54.311 4.42383 55.3218 4.42383C56.3475 4.42383 57.2796 4.60726 58.1182 4.97412C58.9567 5.34098 59.6792 5.87256 60.2856 6.56885C60.8996 7.25765 61.3713 8.09245 61.7007 9.07324C62.0376 10.054 62.2061 11.1659 62.2061 12.4087ZM59.084 13.251V12.3862C59.084 11.4953 59.0016 10.7129 58.8369 10.0391C58.6722 9.35775 58.4289 8.78499 58.1069 8.3208C57.785 7.85661 57.3882 7.50846 56.9165 7.27637C56.4448 7.03678 55.9132 6.91699 55.3218 6.91699C54.7228 6.91699 54.1912 7.03678 53.7271 7.27637C53.2703 7.50846 52.881 7.85661 52.5591 8.3208C52.2371 8.78499 51.9901 9.35775 51.8179 10.0391C51.6532 10.7129 51.5708 11.4953 51.5708 12.3862V13.251C51.5708 14.1344 51.6532 14.9168 51.8179 15.5981C51.9901 16.2795 52.2371 16.856 52.5591 17.3276C52.8885 17.7918 53.2853 18.1437 53.7495 18.3833C54.2137 18.6229 54.7453 18.7427 55.3442 18.7427C55.9432 18.7427 56.4748 18.6229 56.939 18.3833C57.4032 18.1437 57.7925 17.7918 58.1069 17.3276C58.4289 16.856 58.6722 16.2795 58.8369 15.5981C59.0016 14.9168 59.084 14.1344 59.084 13.251ZM75.1997 18.5742V21H66.979V18.5742H75.1997ZM67.9111 4.64844V21H64.8228V4.64844H67.9111ZM81.5898 4.64844V21H78.5127V4.64844H81.5898ZM86.666 4.64844V7.08545H73.4927V4.64844H86.666ZM94.0781 7.13037L89.4175 21H86.1494L92.2588 4.64844H94.3477L94.0781 7.13037ZM97.9751 21L93.292 7.13037L93.0112 4.64844H95.1113L101.254 21H97.9751ZM97.7617 14.9243V17.3613H88.9907V14.9243H97.7617ZM102.939 4.64844H108.88C110.123 4.64844 111.19 4.83561 112.081 5.20996C112.972 5.58431 113.657 6.13835 114.136 6.87207C114.615 7.60579 114.854 8.50798 114.854 9.57861C114.854 10.4246 114.705 11.1584 114.405 11.7798C114.106 12.4012 113.683 12.9215 113.136 13.3408C112.597 13.7601 111.961 14.0895 111.227 14.3291L110.261 14.8232H105.017L104.994 12.3862H108.914C109.55 12.3862 110.078 12.2739 110.497 12.0493C110.916 11.8247 111.231 11.514 111.44 11.1172C111.658 10.7204 111.766 10.2674 111.766 9.7583C111.766 9.21175 111.661 8.74007 111.452 8.34326C111.242 7.93896 110.924 7.62826 110.497 7.41113C110.07 7.19401 109.531 7.08545 108.88 7.08545H106.027V21H102.939V4.64844ZM112.17 21L108.386 13.6777L111.654 13.6665L115.483 20.8428V21H112.17Z" fill="#173C5A"/>
<path d="M12.9384 9.65672L11.2673 7.98564L6.25171 13.0001L11.2662 18.0145L12.9372 16.3423L10.7781 14.1819L19.6854 14.1819L19.6854 11.8183L10.7781 11.8183L12.9384 9.65672Z" fill="#173C5A"/>
<path fill-rule="evenodd" clip-rule="evenodd" d="M3.80781 3.80786C-1.26927 8.88494 -1.26927 17.1151 3.80781 22.1922C8.88489 27.2693 17.1151 27.2693 22.1921 22.1922C27.2692 17.1151 27.2692 8.88494 22.1921 3.80786C17.1151 -1.26922 8.88489 -1.26922 3.80781 3.80786ZM5.4789 5.47895C3.48418 7.47366 2.36357 10.1791 2.36357 13C2.36357 15.821 3.48418 18.5264 5.4789 20.5211C7.47361 22.5158 10.179 23.6364 13 23.6364C15.8209 23.6364 18.5263 22.5158 20.521 20.5211C22.5158 18.5264 23.6364 15.821 23.6364 13C23.6364 10.1791 22.5158 7.47366 20.521 5.47895C18.5263 3.48424 15.8209 2.36362 13 2.36362C10.179 2.36362 7.47361 3.48424 5.4789 5.47895Z" fill="#173C5A"/>
</svg>
